<svg xmlns="http://www.w3.org/2000/svg" width="500" height="500" viewBox="0 0 500 500">
  <!-- Blue background -->
  <rect width="500" height="500" fill="#2563eb"/>
  
  <!-- Simple house shape -->
  <g transform="translate(250, 250)">
    <!-- House body -->
    <rect x="-80" y="-40" width="160" height="120" fill="#ffffff"/>
    
    <!-- Roof triangle -->
    <polygon points="-90,-40 0,-100 90,-40" fill="#dc2626"/>
    
    <!-- Door -->
    <rect x="-15" y="20" width="30" height="60" fill="#6b7280"/>
    
    <!-- Windows -->
    <rect x="-60" y="-10" width="25" height="25" fill="#60a5fa"/>
    <rect x="35" y="-10" width="25" height="25" fill="#60a5fa"/>
    
    <!-- xComfort text -->
    <text x="0" y="130" text-anchor="middle" font-family="Arial" font-size="20" fill="#ffffff">xComfort</text>
  </g>
</svg>
<path d="M0 0 C3 1 3 1 4.9375 3.4375 C6.73765879 6.06728882 6.73765879 6.06728882 9.0625 6.9375 C11 8 11 8 12.125 10.6875 C17.09025644 19.45945305 27.85110839 23.18736613 37.07421875 25.90625 C39.70943982 26.63506914 42.34816888 27.33452147 45 28 C44.34 30.64 43.68 33.28 43 36 C38.87433477 37.03141631 37.66747635 36.89166454 33.75 35.75 C32.78964844 35.47027344 31.82929688 35.19054687 30.83984375 34.90234375 C27.1643103 33.73446448 23.58521453 32.4205567 20 31 C20 30.34 20 29.68 20 29 C18.35 28.34 16.7 27.68 15 27 C15 26.34 15 25.68 15 25 C14.13568359 24.85884766 14.13568359 24.85884766 13.25390625 24.71484375 C10.49025076 23.8383291 9.05666126 22.52650109 6.9375 20.5625 C4.66243606 18.47083853 2.58492291 16.72328194 0 15 C-1.1875 11.875 -1.1875 11.875 -2 9 C-0.68 9.33 0.64 9.66 2 10 C2 10.66 2 11.32 2 12 C2.66 12 3.32 12 4 12 C4.33 12.66 4.66 13.32 5 14 C4.21302675 10.58978257 3.12880057 7.31114834 2 4 C1.34 4 0.68 4 0 4 C0 2.68 0 1.36 0 0 Z " fill="#0AE207" transform="translate(152,286)"/>
<path d="M0 0 C0.99 0.66 1.98 1.32 3 2 C2.01 2.33 1.02 2.66 0 3 C0 3.66 0 4.32 0 5 C-0.83402344 5.23074219 -1.66804688 5.46148437 -2.52734375 5.69921875 C-14.01975844 9.02978108 -21.1761322 12.44193526 -28.984375 21.62890625 C-30.58941462 23.51700519 -32.20336284 25.2389551 -34 26.9375 C-36.21548272 28.92411167 -36.21548272 28.92411167 -37 32 C-37.66 32 -38.32 32 -39 32 C-39 33.32 -39 34.64 -39 36 C-39.66 36 -40.32 36 -41 36 C-43.18759031 42.28896562 -45.03173419 48.61451774 -46.6875 55.0625 C-46.91244141 55.92810547 -47.13738281 56.79371094 -47.36914062 57.68554688 C-47.91551056 59.78965238 -48.45815403 61.89472496 -49 64 C-50.32 64 -51.64 64 -53 64 C-53 64.66 -53 65.32 -53 66 C-54.32 66 -55.64 66 -57 66 C-56.744607 63.24776482 -56.47137277 60.49931893 -56.1875 57.75 C-56.11724609 56.97269531 -56.04699219 56.19539063 -55.97460938 55.39453125 C-55.51109578 51.05604404 -55.05617961 48.31086125 -52 45 C-51.28837557 43.35202764 -50.60968047 41.68834592 -50 40 C-49.34 40 -48.68 40 -48 40 C-47.34 38.68 -46.68 37.36 -46 36 C-45.34 36 -44.68 36 -44 36 C-43.8453125 35.2265625 -43.8453125 35.2265625 -43.6875 34.4375 C-42.1283347 28.90955029 -39.95256062 24.20756453 -36 20 C-35.34 20 -34.68 20 -34 20 C-33.7525 19.4225 -33.505 18.845 -33.25 18.25 C-30.50251196 13.30452152 -27.34937257 11.49324976 -22.09765625 9.90625 C-19.82795711 9.04709499 -19.82795711 9.04709499 -17.69921875 7.04296875 C-14.46655428 4.59624875 -11.6635643 3.81545319 -7.75 2.8125 C-3.5596646 2.03525287 -3.5596646 2.03525287 0 0 Z " fill="#19EC0F" transform="translate(192,176)"/>
<path d="M0 0 C1.34313399 0.64669414 2.67391178 1.31903578 4 2 C4.80050781 2.39058594 5.60101563 2.78117188 6.42578125 3.18359375 C14.44415815 8.8414773 18.79569026 24.7359415 21 34 C21.34135315 38.04809821 21.33906393 41.95383712 21 46 C20.34 46 19.68 46 19 46 C19.165 46.99 19.33 47.98 19.5 49 C20.7695127 56.61707619 19.84616864 62.76170378 17.3125 69.9375 C17.03849365 70.73019287 16.7644873 71.52288574 16.48217773 72.33959961 C12.43500641 83.74376992 6.13132 93.91225942 -3 102 C-3.66 102 -4.32 102 -5 102 C-5 102.66 -5 103.32 -5 104 C-6.97321053 105.3726682 -8.97543152 106.70427617 -11 108 C-11.99 108.99 -11.99 108.99 -13 110 C-15.1640625 110.4140625 -15.1640625 110.4140625 -17.625 110.625 C-18.85089844 110.73714844 -18.85089844 110.73714844 -20.1015625 110.8515625 C-20.72804687 110.90054688 -21.35453125 110.94953125 -22 111 C-18.74156234 108.29146025 -15.47687722 106.05385376 -11.8125 103.9375 C3.1988629 94.44918571 11.5868359 78.63240309 15.54858398 61.64819336 C16.37883481 56.77759805 16.22681651 51.86688889 16.25 46.9375 C16.270625 45.86822266 16.29125 44.79894531 16.3125 43.69726562 C16.3857109 28.5517602 11.70263291 15.34658267 2.19921875 3.5234375 C1 2 1 2 0 0 Z " fill="#188A17" transform="translate(240,200)"/>
<path d="M0 0 C2.97 0 5.94 0 9 0 C9.99 2.97 10.98 5.94 12 9 C12.33 6.03 12.66 3.06 13 0 C14.98 0 16.96 0 19 0 C19 7.59 19 15.18 19 23 C15.7 23 12.4 23 9 23 C8.34 20.03 7.68 17.06 7 14 C6.67 16.97 6.34 19.94 6 23 C4.02 23 2.04 23 0 23 C0 15.41 0 7.82 0 0 Z " fill="#6C6C6C" transform="translate(218,118)"/>
<path d="M0 0 C-3.42381659 1.1412722 -5.61175928 0.94647931 -9.19921875 0.66015625 C-10.40771484 0.56669922 -11.61621094 0.47324219 -12.86132812 0.37695312 C-14.12396484 0.27318359 -15.38660156 0.16941406 -16.6875 0.0625 C-17.96173828 -0.03740234 -19.23597656 -0.13730469 -20.54882812 -0.24023438 C-23.69969088 -0.48805504 -26.8499956 -0.74153323 -30 -1 C-30 -0.01 -30 0.98 -30 2 C-30.60328125 2.13277344 -31.2065625 2.26554688 -31.828125 2.40234375 C-33.02695313 2.66724609 -33.02695313 2.66724609 -34.25 2.9375 C-35.03890625 3.11152344 -35.8278125 3.28554687 -36.640625 3.46484375 C-38.76878703 3.947556 -40.88532842 4.46163178 -43 5 C-43 5.66 -43 6.32 -43 7 C-44.37405173 7.77252241 -45.74929634 8.5429232 -47.125 9.3125 C-47.95 9.7765625 -48.775 10.240625 -49.625 10.71875 C-52 12 -52 12 -55.125 13.3125 C-58.6068813 15.35621294 -60.6805257 17.83979098 -63.19140625 20.96484375 C-65 23 -65 23 -67.453125 24.71484375 C-70.94779323 27.8503973 -72.35386252 31.36438426 -74.1875 35.625 C-74.86471264 37.16052546 -75.54554493 38.69446107 -76.23046875 40.2265625 C-76.52332764 40.90283691 -76.81618652 41.57911133 -77.11791992 42.27587891 C-78 44 -78 44 -80 46 C-81.01965427 48.32481174 -82.02059602 50.65794699 -83 53 C-83.495 53.495 -83.495 53.495 -84 54 C-84.28397852 56.80823199 -84.44846665 59.61646635 -84.62109375 62.43359375 C-85 65 -85 65 -87 67 C-88.05003113 48.7994604 -78.55607768 31.76333806 -67.1875 18.1875 C-49.93988226 -0.22596069 -24.27692482 -9.16522106 0 0 Z " fill="#1DC11A" transform="translate(222,171)"/>
<path d="M0 0 C2.475 0.99 2.475 0.99 5 2 C5.5096835 10.2651652 4.21479852 16.90472818 1.5 24.6875 C1.16613281 25.68716797 0.83226562 26.68683594 0.48828125 27.71679688 C-0.32662675 30.14987933 -1.15605666 32.57686936 -2 35 C-2.66 35 -3.32 35 -4 35 C-4.12375 35.556875 -4.2475 36.11375 -4.375 36.6875 C-5.05976855 39.22114364 -5.99133763 41.57921032 -7 44 C-7.66 44 -8.32 44 -9 44 C-9.33 44.99 -9.66 45.98 -10 47 C-10.66 47 -11.32 47 -12 47 C-12.0825 47.5775 -12.165 48.155 -12.25 48.75 C-13.225982 51.67794601 -14.63511223 53.05244537 -17 55 C-17.99 55 -18.98 55 -20 55 C-20 55.66 -20 56.32 -20 57 C-20.99 57 -21.98 57 -23 57 C-23 57.66 -23 58.32 -23 59 C-24.64453125 60.32421875 -24.64453125 60.32421875 -26.8125 61.6875 C-27.87404297 62.37392578 -27.87404297 62.37392578 -28.95703125 63.07421875 C-31 64 -31 64 -34 63 C-33.34 62.34 -32.68 61.68 -32 61 C-32 60.01 -32 59.02 -32 58 C-31.175 57.814375 -30.35 57.62875 -29.5 57.4375 C-24.30551851 55.30405224 -19.22239086 51.84921588 -16.94921875 46.55078125 C-16.63597656 45.70902344 -16.32273438 44.86726563 -16 44 C-15.06191165 42.47397326 -14.08172307 40.97307559 -13.0625 39.5 C-4.58780073 27.18892792 -2.13367301 14.54777053 0 0 Z " fill="#11EB0B" transform="translate(261,252)"/>
<path d="M0 0 C5.28 0 10.56 0 16 0 C15.67 1.98 15.34 3.96 15 6 C12.36 6 9.72 6 7 6 C7 6.66 7 7.32 7 8 C9.31 8 11.62 8 14 8 C13.67 9.98 13.34 11.96 13 14 C11.02 14 9.04 14 7 14 C7 14.66 7 15.32 7 16 C8.65 16 10.3 16 12 16 C11.67 17.98 11.34 19.96 11 22 C7.37 22 3.74 22 0 22 C0 14.74 0 7.48 0 0 Z " fill="#686868" transform="translate(166,120)"/>
<path d="M0 0 C0.66 0.33 1.32 0.66 2 1 C1.67 9.91 1.34 18.82 1 28 C-1.97 27.67 -4.94 27.34 -8 27 C-8 31.62 -8 36.24 -8 41 C-7.34 41 -6.68 41 -6 41 C-5.67 44.3 -5.34 47.6 -5 51 C-11.40202736 44.59797264 -11.22609452 29.98627572 -11.27685547 21.51245117 C-11.23828366 17.00621234 -11.15658823 12.50371829 -11 8 C-10.67 8 -10.34 8 -10 8 C-10 10.31 -10 12.62 -10 15 C-8.68 15 -7.36 15 -6 15 C-6 14.34 -6 13.68 -6 13 C-4.68 13 -3.36 13 -2 13 C-1.34 8.71 -0.68 4.42 0 0 Z " fill="#40D939" transform="translate(145,227)"/>
<path d="M0 0 C0.33 0 0.66 0 1 0 C0.97905273 1.26779297 0.95810547 2.53558594 0.93652344 3.84179688 C0.13959491 37.16745197 0.13959491 37.16745197 5 70 C5.42882541 71.93219407 5.85719746 73.8644888 6.28515625 75.796875 C9.24084559 88.52074432 13.65414898 100.26229391 19.15551758 112.09667969 C20 114 20 114 21 117 C20.01 117 19.02 117 18 117 C7.78261605 93.84232521 0.23406846 70.32331111 -2 45 C-2.06848145 44.24525391 -2.13696289 43.49050781 -2.20751953 42.71289062 C-3.36559245 29.08390714 -4.37930485 13.13791456 0 0 Z " fill="#CCCCCC" transform="translate(51,221)"/>
<path d="M0 0 C2.33294775 -0.04241723 4.66702567 -0.04092937 7 0 C8.99977858 1.99977858 8.43532807 5.84329904 8.62109375 8.5546875 C8.8632494 11.25068778 8.8632494 11.25068778 11 14 C12.46807346 19.26512765 13.28803251 24.52738226 13 30 C8.72504406 25.57763179 7.48701402 20.80160774 6 15 C6.28487651 17.04262517 6.57822051 19.08407027 6.875 21.125 C7.03742188 22.26195312 7.19984375 23.39890625 7.3671875 24.5703125 C7.97431417 27.86078915 8.86345633 30.85779103 10 34 C9.34 34 8.68 34 8 34 C7.34 32.02 6.68 30.04 6 28 C5.34 28 4.68 28 4 28 C2.4087311 23.126739 1.78807779 19.19209404 2 14 C1.34 14 0.68 14 0 14 C-1.09321611 9.49048355 -2.13999677 4.27999354 0 0 Z " fill="#1CEC13" transform="translate(137,254)"/>
<path d="M0 0 C8.25339721 12.38009582 7.33977132 32.61321317 4.8125 46.6875 C2.2379422 58.03239722 -1.53575636 69.237286 -8 79 C-8.99 79.495 -8.99 79.495 -10 80 C-9.44271087 76.65626525 -8.64826111 73.96687001 -7 71 C-6.34 71 -5.68 71 -5 71 C-4.88527344 69.9996875 -4.77054687 68.999375 -4.65234375 67.96875 C-4.08269362 63.98820706 -2.89981653 60.28191554 -1.5625 56.5 C2.32725261 45.99429144 2.32725261 45.99429144 2 35 C1.01 35 0.02 35 -1 35 C-1 33.68 -1 32.36 -1 31 C-0.34 30.67 0.32 30.34 1 30 C1.3400005 27.30364823 1.55958136 24.70722351 1.6875 22 C1.73455078 21.24976563 1.78160156 20.49953125 1.83007812 19.7265625 C1.93505575 17.81975572 1.97278125 15.90950034 2 14 C1.67 13.67 1.34 13.34 1 13 C0.76518307 10.81707226 0.58636677 8.62796826 0.4375 6.4375 C0.35371094 5.23996094 0.26992188 4.04242188 0.18359375 2.80859375 C0.12300781 1.88175781 0.06242187 0.95492187 0 0 Z " fill="#3BCB35" transform="translate(264,216)"/>
<path d="M0 0 C5.53682166 -0.16030887 10.48400659 0.28256598 15.875 1.625 C16.96856812 1.89231934 16.96856812 1.89231934 18.08422852 2.16503906 C37.95049003 7.17879397 56.89794635 14.63891843 74 26 C73.34 27.32 72.68 28.64 72 30 C70.83294108 29.35487576 69.66640312 28.70880919 68.5 28.0625 C67.67628906 27.60746094 66.85257812 27.15242188 66.00390625 26.68359375 C63.79119051 25.44343707 61.59398351 24.18645395 59.40234375 22.91015625 C40.63756302 12.04782302 21.47810028 4.47149321 0 1 C0 0.67 0 0.34 0 0 Z " fill="#414141" transform="translate(292,28)"/>
<path d="M0 0 C0.99 0 1.98 0 3 0 C3 1.32 3 2.64 3 4 C2.01 4 1.02 4 0 4 C-0.33 5.32 -0.66 6.64 -1 8 C-1.94101563 8.23074219 -2.88203125 8.46148437 -3.8515625 8.69921875 C-10.77172639 10.51164263 -15.69960245 12.07820228 -21 17 C-22.94921875 17.7734375 -22.94921875 17.7734375 -25.0625 18.4375 C-29.39881727 19.89667901 -31.27391123 22.31609625 -34 26 C-34.845625 26.78375 -35.69125 27.5675 -36.5625 28.375 C-40.25982112 32.35673043 -42.2923258 36.87697741 -44 42 C-44.66 42 -45.32 42 -46 42 C-46.66 43.98 -47.32 45.96 -48 48 C-49.50506258 43.48481227 -47.40952059 40.77219782 -45.4375 36.625 C-45.10169922 35.86960938 -44.76589844 35.11421875 -44.41992188 34.3359375 C-41.99635978 29.17289274 -39.53800678 26.42309143 -35 23 C-33.79831742 21.65549449 -32.62648577 20.28310721 -31.5 18.875 C-28.61523011 15.49678262 -26.14806036 13.72835848 -22 12 C-20.74240315 11.28401524 -19.49248614 10.55439772 -18.25 9.8125 C-15 8 -15 8 -13 8 C-13 7.34 -13 6.68 -13 6 C-10.03821227 4.32889958 -7.62928808 3.67317248 -4.25 3.375 C-3.45078125 3.30023438 -2.6515625 3.22546875 -1.828125 3.1484375 C-1.22484375 3.09945312 -0.6215625 3.05046875 0 3 C0 2.01 0 1.02 0 0 Z " fill="#20F014" transform="translate(192,170)"/>
<path d="M0 0 C5.61 0 11.22 0 17 0 C18 8 18 8 17 11 C11.39 11 5.78 11 0 11 C0 7.37 0 3.74 0 0 Z " fill="#616161" transform="translate(169,266)"/>
<path d="M0 0 C1.34313399 0.64669414 2.67391178 1.31903578 4 2 C4.80050781 2.39058594 5.60101563 2.78117188 6.42578125 3.18359375 C14.44415815 8.8414773 18.79569026 24.7359415 21 34 C21.34135315 38.04809821 21.33906393 41.95383712 21 46 C20.34 46 19.68 46 19 46 C19.04125 47.258125 19.0825 48.51625 19.125 49.8125 C19.2390374 53.29064073 19.05925681 53.91111478 17 57 C16.98541748 56.36610352 16.97083496 55.73220703 16.95581055 55.07910156 C16.45555663 35.61339077 14.84938415 19.26143855 2.19921875 3.5234375 C1 2 1 2 0 0 Z " fill="#2E942D" transform="translate(240,200)"/>
<path d="M0 0 C3.63970867 -0.42820102 5.04569463 0.02586488 8.3125 1.875 C9.199375 2.57625 10.08625 3.2775 11 4 C11 4.66 11 5.32 11 6 C12.32 6.33 13.64 6.66 15 7 C15 7.66 15 8.32 15 9 C15.680625 9.12375 16.36125 9.2475 17.0625 9.375 C20.4277412 10.09100877 23.70013425 11.02945125 27 12 C27 12.66 27 13.32 27 14 C28.9490625 13.814375 28.9490625 13.814375 30.9375 13.625 C31.66839844 13.55539062 32.39929688 13.48578125 33.15234375 13.4140625 C33.76207031 13.27742188 34.37179688 13.14078125 35 13 C35.33 12.34 35.66 11.68 36 11 C36.66 11.33 37.32 11.66 38 12 C37.34 14.64 36.68 17.28 36 20 C20.47336621 15.90027085 20.47336621 15.90027085 14 12 C13.23945313 11.54625 12.47890625 11.0925 11.6953125 10.625 C6.87624201 7.59135563 3.38196885 4.58202232 0 0 Z " fill="#1BF10F" transform="translate(159,302)"/>
<path d="M0 0 C2.97338496 3.38756405 2.97338496 3.38756405 3.08959961 6.06176758 C2.96593018 6.81095459 2.84226074 7.5601416 2.71484375 8.33203125 C2.13829115 12.59789465 1.86019427 16.76926652 1.75390625 21.07421875 C1.72103516 22.31880859 1.68816406 23.56339844 1.65429688 24.84570312 C1.59282125 27.41852322 1.53556708 29.99144747 1.48242188 32.56445312 C1.31351188 38.69939167 1.14144334 44.21723599 -1 50 C-1.33 50 -1.66 50 -2 50 C-4.86451367 33.45974366 -3.23855762 16.34700513 0 0 Z " fill="#747474" transform="translate(99,215)"/>
<path d="M0 0 C5.28 0 10.56 0 16 0 C15.175 0.94875 14.35 1.8975 13.5 2.875 C10.27238626 7.38632375 10.12755793 11.61994057 11 17 C12.31227434 20.03465702 12.31227434 20.03465702 14 22 C11.36 22 8.72 22 6 22 C6 16.72 6 11.44 6 6 C4.02 6 2.04 6 0 6 C0 4.02 0 2.04 0 0 Z " fill="#646464" transform="translate(192,119)"/>
<path d="M0 0 C0.66 0 1.32 0 2 0 C2.87398438 1.670625 2.87398438 1.670625 3.765625 3.375 C12.25610596 19.30146212 22.46889093 33.03483143 35 46 C35.7940625 46.83402344 36.588125 47.66804688 37.40625 48.52734375 C41.9466421 53.1999048 46.64828386 57.28150513 52 61 C51.34 61.66 50.68 62.32 50 63 C47.58112083 60.91922439 45.16530115 58.83492724 42.75 56.75 C42.06808594 56.16347656 41.38617188 55.57695312 40.68359375 54.97265625 C33.33128132 48.61968726 33.33128132 48.61968726 31 46 C31 45.34 31 44.68 31 44 C30.34 44 29.68 44 29 44 C26.21909752 41.01332249 23.74496427 37.77598531 21.22900391 34.56445312 C20.0957717 33.12191201 18.9451356 31.69308836 17.79296875 30.265625 C12.95211486 24.09026544 8.87659444 17.65384767 4.9375 10.875 C4.20297607 9.61139648 4.20297607 9.61139648 3.45361328 8.32226562 C0 2.26329496 0 2.26329496 0 0 Z " fill="#C7C7C7" transform="translate(70,338)"/>
<path d="M0 0 C1.32 0.33 2.64 0.66 4 1 C4 1.66 4 2.32 4 3 C4.66 3 5.32 3 6 3 C6.37125 4.175625 6.37125 4.175625 6.75 5.375 C8.22578274 8.47414375 9.02216794 8.57750401 12 10 C12.94875 10.886875 13.8975 11.77375 14.875 12.6875 C22.61302782 19.46035446 32.82539812 23.85125463 43 25 C43.495 26.485 43.495 26.485 44 28 C36.13867147 26.97343476 29.22389676 25.29230693 22 22 C22 21.34 22 20.68 22 20 C20.35 19.34 18.7 18.68 17 18 C17 17.34 17 16.68 17 16 C16.42378906 15.90589844 15.84757813 15.81179688 15.25390625 15.71484375 C12.49025076 14.8383291 11.05666126 13.52650109 8.9375 11.5625 C6.66243606 9.47083853 4.58492291 7.72328194 2 6 C0.8125 2.875 0.8125 2.875 0 0 Z " fill="#18D312" transform="translate(150,295)"/>
<path d="M0 0 C2.97 0.33 5.94 0.66 9 1 C9 1.66 9 2.32 9 3 C9.825 3.04125 10.65 3.0825 11.5 3.125 C16.27832738 4.31958185 19.24308767 6.91840043 23 10 C23.928125 10.70125 24.85625 11.4025 25.8125 12.125 C27.9365845 13.94564385 29.50519824 15.6397867 31 18 C31 18.66 31 19.32 31 20 C31.99 20.33 32.98 20.66 34 21 C34 21.66 34 22.32 34 23 C34.66 23 35.32 23 36 23 C36 23.99 36 24.98 36 26 C29.4980067 22.86110668 29.4980067 22.86110668 27.64453125 19.65625 C21.70471911 10.06225414 10.27605835 6.02505268 0 3 C0 2.01 0 1.02 0 0 Z " fill="#11CB0C" transform="translate(211,178)"/>
<path d="M0 0 C12.99568305 2.09232822 24.23596606 12.5240076 31.8125 22.8125 C35.79368564 28.88233722 38.895593 35.45149405 42 42 C41.01 42 40.02 42 39 42 C39 41.01 39 40.02 39 39 C38.34 39 37.68 39 37 39 C37 37.68 37 36.36 37 35 C36.34 35 35.68 35 35 35 C31.15384615 28.46153846 31.15384615 28.46153846 30.1875 25.5625 C26.78486558 18.2199731 21.28803248 14.06864525 14 11 C14 10.34 14 9.68 14 9 C11.525 8.01 11.525 8.01 9 7 C9 6.34 9 5.68 9 5 C8.443125 4.87625 7.88625 4.7525 7.3125 4.625 C4.77885636 3.94023145 2.42078968 3.00866237 0 2 C0 1.34 0 0.68 0 0 Z " fill="#29C225" transform="translate(222,172)"/>
<path d="M0 0 C4.05385937 1.80473829 6.86602486 4.45788476 10.09765625 7.44140625 C12.01883893 9.2044029 12.01883893 9.2044029 15 10 C16.02019573 10.9793879 17.02149805 11.97895449 18 13 C18.66 13.33 19.32 13.66 20 14 C20 14.66 20 15.32 20 16 C20.804375 16.103125 21.60875 16.20625 22.4375 16.3125 C27.49727589 17.28894798 32.50456629 18.76142393 37.1328125 21.05859375 C41.46472052 22.48092322 45.77952784 22.47123133 50.3125 22.625 C51.24384766 22.66367187 52.17519531 22.70234375 53.13476562 22.7421875 C55.42298407 22.83606313 57.71120295 22.92174509 60 23 C52.50944643 27.05215046 42.82980944 25.76267374 34.83935547 23.5637207 C21.17253017 19.34119518 8.38739938 11.87098379 0 0 Z " fill="#45AB42" transform="translate(152,301)"/>
<path d="M0 0 C0.66 0 1.32 0 2 0 C2.144375 1.134375 2.28875 2.26875 2.4375 3.4375 C2.61171478 6.80777201 2.61171478 6.80777201 4 8 C4.1002093 10.27947792 4.13081303 12.56207135 4.1328125 14.84375 C4.13376923 15.52804077 4.13472595 16.21233154 4.13571167 16.9173584 C4.1363933 18.36661877 4.13454023 19.81588218 4.13037109 21.26513672 C4.12502252 23.49062928 4.1303166 25.71592001 4.13671875 27.94140625 C4.13605797 29.34635461 4.1347768 30.75130285 4.1328125 32.15625 C4.13168457 33.44337891 4.13055664 34.73050781 4.12939453 36.05664062 C4 39 4 39 3 40 C3.020625 40.969375 3.04125 41.93875 3.0625 42.9375 C3 46 3 46 1 48 C1.3403125 49.36125 1.3403125 49.36125 1.6875 50.75 C2.03399899 54.35358952 1.84748001 54.72525708 -0.3125 57.375 C-3 60 -3 60 -5 60 C-4.34375 57.59375 -4.34375 57.59375 -3.6875 55.1875 C-3.41550781 54.18589844 -3.14351563 53.18429687 -2.86328125 52.15234375 C-2.30705723 50.12124516 -1.74257914 48.09237998 -1.16796875 46.06640625 C-0.90628906 45.13699219 -0.64460938 44.20757812 -0.375 43.25 C-0.13523437 42.40953125 0.10453125 41.5690625 0.3515625 40.703125 C1.79089863 34.7030009 2.19305348 28.82617333 2.1875 22.6875 C2.18814453 21.94346924 2.18878906 21.19943848 2.18945312 20.43286133 C2.1418608 15.45892259 1.6705149 10.81833973 0.4375 5.98046875 C0 4 0 4 0 0 Z " fill="#C2F0C1" transform="translate(267,224)"/>
<path d="M0 0 C-3.11088084 1.03696028 -4.33351425 0.96833124 -7.5 0.5625 C-15.97573062 -0.32968217 -24.48935758 -0.07937387 -33 0 C-33 0.66 -33 1.32 -33 2 C-34.24716797 2.16435547 -34.24716797 2.16435547 -35.51953125 2.33203125 C-36.60621094 2.49058594 -37.69289062 2.64914063 -38.8125 2.8125 C-40.43091797 3.03873047 -40.43091797 3.03873047 -42.08203125 3.26953125 C-45.01973303 3.73918544 -45.01973303 3.73918544 -46.63671875 5.63671875 C-47.31154297 6.31154297 -47.31154297 6.31154297 -48 7 C-50.1875 6.6875 -50.1875 6.6875 -52 6 C-36.39046819 -3.84166863 -17.48018165 -6.59925959 0 0 Z " fill="#48C940" transform="translate(222,171)"/>
<path d="M0 0 C-0.268125 0.66773438 -0.53625 1.33546875 -0.8125 2.0234375 C-1.204375 3.00570312 -1.59625 3.98796875 -2 5 C-2.7115625 6.78277344 -2.7115625 6.78277344 -3.4375 8.6015625 C-3.95908886 9.94241468 -4.47990527 11.28356756 -5 12.625 C-5.26039063 13.27339844 -5.52078125 13.92179688 -5.7890625 14.58984375 C-9.78546342 24.98452292 -10.27985817 35.13896502 -10.125 46.1875 C-10.11597656 47.42564453 -10.10695312 48.66378906 -10.09765625 49.93945312 C-10.07433276 52.95984511 -10.04160477 55.97981399 -10 59 C-12.88476456 56.11523544 -12.34913411 53.91050912 -12.484375 49.875 C-12.5084845 49.1722998 -12.53259399 48.46959961 -12.55743408 47.74560547 C-12.60573873 46.25958798 -12.64912881 44.77340385 -12.68798828 43.28710938 C-12.74977298 41.00837284 -12.83281562 38.73109423 -12.91796875 36.453125 C-12.96222119 35.01045547 -13.00523184 33.5677472 -13.046875 32.125 C-13.08651367 30.80757812 -13.12615234 29.49015625 -13.16699219 28.1328125 C-13 25 -13 25 -11 23 C-10.60235737 21.01178687 -10.26224651 19.01055661 -10 17 C-9.34 17 -8.68 17 -8 17 C-8 15.02 -8 13.04 -8 11 C-7.34 11 -6.68 11 -6 11 C-6.0309375 9.9171875 -6.0309375 9.9171875 -6.0625 8.8125 C-6.00113268 6.05097067 -5.73901807 3.66046507 -5 1 C-3 0 -3 0 0 0 Z " fill="#C1F1C0" transform="translate(145,203)"/>
<path d="M0 0 C0.99 0.33 1.98 0.66 3 1 C3 2.32 3 3.64 3 5 C0.20227505 6.67193817 -2.61527028 8.30732318 -5.4375 9.9375 C-6.22060547 10.40607422 -7.00371094 10.87464844 -7.81054688 11.35742188 C-13.3344122 14.51716377 -17.63553432 15.70057068 -24 16 C-19.70928509 12.35939341 -15.08018335 9.68488662 -10.171875 7 C-7.30031486 5.40191435 -4.77112453 3.80753654 -2.25 1.6875 C-1.5075 1.130625 -0.765 0.57375 0 0 Z " fill="#5A5A5A" transform="translate(364,434)"/>
<path d="M0 0 C1.24845703 -0.00257813 2.49691406 -0.00515625 3.78320312 -0.0078125 C5.07548828 -0.00007812 6.36777344 0.00765625 7.69921875 0.015625 C9.62024414 0.00402344 9.62024414 0.00402344 11.58007812 -0.0078125 C18.50317272 0.00643988 24.70456876 0.42930897 31.38671875 2.265625 C31.38671875 2.925625 31.38671875 3.585625 31.38671875 4.265625 C32.37671875 4.265625 33.36671875 4.265625 34.38671875 4.265625 C34.38671875 3.275625 34.38671875 2.285625 34.38671875 1.265625 C35.04671875 1.265625 35.70671875 1.265625 36.38671875 1.265625 C36.88171875 3.245625 36.88171875 3.245625 37.38671875 5.265625 C38.37671875 5.265625 39.36671875 5.265625 40.38671875 5.265625 C40.88171875 7.740625 40.88171875 7.740625 41.38671875 10.265625 C36.0025036 8.51961255 30.76701049 6.47429204 25.5078125 4.38671875 C19.66954038 2.28961725 14.34450768 2.07331883 8.19921875 2.078125 C6.93307739 2.0771582 6.93307739 2.0771582 5.64135742 2.07617188 C-0.34448864 2.12688473 -5.80308325 2.74163864 -11.61328125 4.265625 C-11.94328125 3.605625 -12.27328125 2.945625 -12.61328125 2.265625 C-8.26064956 0.6108444 -4.64810514 0.00931018 0 0 Z " fill="#C0E8BE" transform="translate(193.61328125,166.734375)"/>
<path d="M0 0 C2.41418525 7.1419647 -1.41934022 15.13646573 -4.52148438 21.59814453 C-6.96777939 26.51029449 -9.54372286 30.74045162 -13 35 C-13.28875 35.886875 -13.5775 36.77375 -13.875 37.6875 C-15 40 -15 40 -17.9375 41.25 C-18.948125 41.4975 -19.95875 41.745 -21 42 C-22.485 42.495 -22.485 42.495 -24 43 C-24 42.34 -24 41.68 -24 41 C-22.85423404 39.95244255 -21.6560644 38.96190283 -20.4375 38 C-8.86387508 28.10311933 -4.05439599 14.2470116 0 0 Z " fill="#14CA0F" transform="translate(259,261)"/>
<path d="M0 0 C0.99 0.66 1.98 1.32 3 2 C2.01 2.33 1.02 2.66 0 3 C0 3.66 0 4.32 0 5 C-0.83402344 5.23074219 -1.66804688 5.46148437 -2.52734375 5.69921875 C-12.56868743 8.60925306 -20.09148974 12.24883271 -28 19 C-28.66 19 -29.32 19 -30 19 C-27.85939636 14.00525818 -24.8032299 11.32883874 -20 9 C-19.28199219 8.36449219 -18.56398437 7.72898438 -17.82421875 7.07421875 C-14.52389847 4.65033207 -11.70357675 3.82570743 -7.75 2.8125 C-3.5596646 2.03525287 -3.5596646 2.03525287 0 0 Z " fill="#13E60B" transform="translate(192,176)"/>
<path d="M0 0 C4.29 0 8.58 0 13 0 C13 2.31 13 4.62 13 7 C8.71 7 4.42 7 0 7 C0 4.69 0 2.38 0 0 Z " fill="#D2D3D3" transform="translate(171,268)"/>
<path d="M0 0 C0.6909375 0.268125 1.381875 0.53625 2.09375 0.8125 C8.85533824 3.81765033 14.79704005 8.79704005 20 14 C19.505 15.485 19.505 15.485 19 17 C18.63390625 16.57589844 18.2678125 16.15179688 17.890625 15.71484375 C6.80006775 3.7000734 -6.37396954 -0.09595941 -22.10791016 -0.79833984 C-24.07164859 -0.87359639 -26.03579991 -0.93795011 -28 -1 C-28 -1.33 -28 -1.66 -28 -2 C-18.15179783 -2.95826586 -9.39744325 -3.7589773 0 0 Z " fill="#339C31" transform="translate(220,183)"/>
<path d="M0 0 C-5.50669537 12.05592045 -18.07484186 21.04070031 -30 26 C-30.99 25.67 -31.98 25.34 -33 25 C-32.48050781 24.76925781 -31.96101562 24.53851563 -31.42578125 24.30078125 C-26.72481403 22.1023622 -23.64988442 19.7512701 -20 16 C-17.6875 15.1875 -17.6875 15.1875 -16 15 C-16 14.34 -16 13.68 -16 13 C-15.01 13 -14.02 13 -13 13 C-13 12.34 -13 11.68 -13 11 C-12.01 11 -11.02 11 -10 11 C-9.71125 10.360625 -9.4225 9.72125 -9.125 9.0625 C-8 7 -8 7 -6 6 C-5.67 5.01 -5.34 4.02 -5 3 C-2.44444444 0 -2.44444444 0 0 0 Z " fill="#34D02C" transform="translate(254,296)"/>
<path d="M0 0 C0.66 0 1.32 0 2 0 C2 0.99 2 1.98 2 3 C1.34 3 0.68 3 0 3 C-0.22816406 3.53882812 -0.45632812 4.07765625 -0.69140625 4.6328125 C-2.71222268 8.28837894 -5.53495723 11.27851027 -8.27929688 14.40234375 C-11.14566536 17.74288049 -13.12133437 21.03392812 -15 25 C-16.875 27.0625 -16.875 27.0625 -19 29 C-19.9075 29.9075 -20.815 30.815 -21.75 31.75 C-22.86375 32.86375 -22.86375 32.86375 -24 34 C-22.36919585 29.03963738 -19.50772906 25.14015107 -16.5 20.9375 C-15.96971191 20.19250244 -15.43942383 19.44750488 -14.89306641 18.67993164 C-10.25954317 12.2374112 -5.52588875 5.71302044 0 0 Z " fill="#CCCCCC" transform="translate(85,85)"/>
<path d="M0 0 C0.66 0 1.32 0 2 0 C2 4.95 2 9.9 2 15 C-0.64 14.34 -3.28 13.68 -6 13 C-5.34 9.7 -4.68 6.4 -4 3 C-2.68 2.67 -1.36 2.34 0 2 C0 1.34 0 0.68 0 0 Z " fill="#5DF945" transform="translate(144,240)"/>
<path d="M0 0 C1.32 0.33 2.64 0.66 4 1 C2.96552734 1.76570312 2.96552734 1.76570312 1.91015625 2.546875 C-4.6864623 7.65043174 -9.43770641 12.7210201 -14.22265625 19.49609375 C-16 22 -16 22 -18 24 C-18.33 21.36 -18.66 18.72 -19 16 C-18.484375 15.62875 -17.96875 15.2575 -17.4375 14.875 C-14.7041287 12.77240669 -12.15170889 10.50950296 -9.5859375 8.20703125 C-8 7 -8 7 -6 7 C-5.67 6.01 -5.34 5.02 -5 4 C-4.01 4 -3.02 4 -2 4 C-2 3.34 -2 2.68 -2 2 C-1.34 2 -0.68 2 0 2 C0 1.34 0 0.68 0 0 Z " fill="#C3EEC2" transform="translate(163,179)"/>
<path d="M0 0 C3 1 3 1 4.9375 3.4375 C6.74112455 6.08026646 6.74112455 6.08026646 9.125 6.9375 C11 8 11 8 12.375 10.9375 C12.58125 11.948125 12.7875 12.95875 13 14 C12.01 15.485 12.01 15.485 11 17 C8.375 17.1875 8.375 17.1875 6 17 C5.71125 15.96875 5.4225 14.9375 5.125 13.875 C4.17691202 10.54992003 3.11743406 7.27248547 2 4 C1.34 4 0.68 4 0 4 C0 2.68 0 1.36 0 0 Z " fill="#11E90B" transform="translate(152,286)"/>
<path d="M0 0 C0.9075 0.845625 1.815 1.69125 2.75 2.5625 C9.85170758 8.64144645 18.1372641 13.10256711 27 16 C27 16.66 27 17.32 27 18 C17.82415774 17.58291626 8.88688074 12.60543762 2.203125 6.45703125 C0.52285272 4.42215606 0.07679293 2.61095954 0 0 Z " fill="#2FC72B" transform="translate(163,294)"/>
<path d="M0 0 C0.33 0 0.66 0 1 0 C1 3.3 1 6.6 1 10 C0.01 10.33 -0.98 10.66 -2 11 C-2 12.32 -2 13.64 -2 15 C-1.01 15 -0.02 15 1 15 C3.30143236 18.45214853 3.13833854 19.23479324 2.625 23.1875 C2.45871094 24.53908203 2.45871094 24.53908203 2.2890625 25.91796875 C2.19367188 26.60503906 2.09828125 27.29210937 2 28 C1.67 28 1.34 28 1 28 C0.67 24.7 0.34 21.4 0 18 C-0.99 17.67 -1.98 17.34 -3 17 C-3.33 18.65 -3.66 20.3 -4 22 C-4.33 22 -4.66 22 -5 22 C-5.98248524 17.9472484 -6.08159574 14.16138263 -6 10 C-4.68 10 -3.36 10 -2 10 C-2.04125 8.906875 -2.0825 7.81375 -2.125 6.6875 C-2 3 -2 3 0 0 Z " fill="#1FEE14" transform="translate(265,236)"/>
<path d="M0 0 C0.66 0 1.32 0 2 0 C2.20496094 0.71027344 2.40992188 1.42054688 2.62109375 2.15234375 C2.89050781 3.07144531 3.15992188 3.99054688 3.4375 4.9375 C3.70433594 5.85402344 3.97117188 6.77054687 4.24609375 7.71484375 C4.79026051 9.9402493 4.79026051 9.9402493 6 11 C7.36902269 16.30621203 8.28925539 21.50414765 8 27 C2.27909669 20.61806795 -0.25 11.6702875 -0.25 3.125 C-0.1675 2.09375 -0.085 1.0625 0 0 Z " fill="#15EC0D" transform="translate(142,257)"/>
<path d="M0 0 C2.5625 2.0625 2.5625 2.0625 5 5 C5.15324031 9.36734884 4.68311389 11.24098457 1.75 14.5 C-1 16 -1 16 -3.625 15.9375 C-7.53191489 14.39529675 -7.53191489 14.39529675 -9 12 C-9.41541656 9.27418451 -9.55664699 6.70683243 -9 4 C-7.4765625 2.25 -7.4765625 2.25 -6 1 C-6.01160156 1.71027344 -6.02320313 2.42054688 -6.03515625 3.15234375 C-6.04417969 4.07144531 -6.05320313 4.99054688 -6.0625 5.9375 C-6.07410156 6.85402344 -6.08570313 7.77054688 -6.09765625 8.71484375 C-6.25949049 10.96593327 -6.25949049 10.96593327 -5 12 C-2.5 12.16666667 -2.5 12.16666667 0 12 C1.38177162 10.8448749 1.38177162 10.8448749 1.125 7.6875 C1.02893262 4.85351237 0.85249568 2.66404901 0 0 Z " fill="#696969" transform="translate(179,211)"/>
<path d="M0 0 C0.66 0.33 1.32 0.66 2 1 C1.3709375 1.53367188 0.741875 2.06734375 0.09375 2.6171875 C-8.29890188 9.92283929 -15.77711957 17.12277854 -19 28 C-19.66 28 -20.32 28 -21 28 C-21.66 29.98 -22.32 31.96 -23 34 C-24.50506258 29.48481227 -22.40952059 26.77219782 -20.4375 22.625 C-20.10169922 21.86960938 -19.76589844 21.11421875 -19.41992188 20.3359375 C-16.99562411 15.1713255 -14.54027864 12.42322596 -10 9 C-8.12353802 6.94500086 -6.37425106 4.82552083 -4.61328125 2.671875 C-3 1 -3 1 0 0 Z " fill="#30F223" transform="translate(167,184)"/>
<path d="M0 0 C3.52312834 0.74960177 4.72290025 1.83624476 6.9375 4.625 C8.34750664 7.44501327 8.18298451 9.49507255 7.9375 12.625 C5.67279412 17.25735294 5.67279412 17.25735294 2.9375 18.625 C0.0625 18.9375 0.0625 18.9375 -3.0625 18.625 C-6.30192475 15.99843939 -7.87144864 14.02604327 -8.4375 9.875 C-7.82644152 4.5791598 -5.32809002 1.08736531 0 0 Z M-4.9375 3.625 C-6.74969102 6.84667292 -6.69610845 10.07964037 -6.0625 13.625 C-4.62235074 16.31638543 -4.62235074 16.31638543 -2.0625 17.625 C1.07112718 17.71392339 1.07112718 17.71392339 3.9375 16.625 C6.47764875 12.81477687 6.52356955 10.09029184 5.9375 5.625 C4.97632095 3.49629307 4.97632095 3.49629307 2.9375 2.625 C-0.15065875 2.23898016 -2.16434376 2.14598334 -4.9375 3.625 Z " fill="#6B6B6B" transform="translate(201.0625,236.375)"/>
<path d="M0 0 C0.99 0 1.98 0 3 0 C3.12375 1.093125 3.2475 2.18625 3.375 3.3125 C3.75464801 7.07381802 3.75464801 7.07381802 6 10 C5.48275862 13.51724138 5.48275862 13.51724138 4 15 C1.5625 15.1875 1.5625 15.1875 -1 15 C-1.66 14.34 -2.32 13.68 -3 13 C-2.46428571 9.46428571 -2.46428571 9.46428571 -1 8 C-0.76924918 6.65252916 -0.58846937 5.29622435 -0.4375 3.9375 C-0.2209375 1.9884375 -0.2209375 1.9884375 0 0 Z " fill="#D2D2D2" transform="translate(175,209)"/>
<path d="M0 0 C0.66 0.33 1.32 0.66 2 1 C-1.42480831 4.52113104 -4.87887447 7.94477854 -8.625 11.125 C-14.75072634 16.39118766 -20.33087054 22.25309285 -26 28 C-26.66 27.67 -27.32 27.34 -28 27 C-19.32957716 17.22017267 -10.3035738 8.09298888 0 0 Z " fill="#D0D0D0" transform="translate(121,93)"/>
<path d="M0 0 C1.32 0.33 2.64 0.66 4 1 C4 2.65 4 4.3 4 6 C4.66 6 5.32 6 6 6 C8.83374078 11.66748157 9.63223832 16.69732561 10 23 C9.34 23.33 8.68 23.66 8 24 C7.15875684 21.75267898 6.32685168 19.50261215 5.5 17.25 C5.26152344 16.61578125 5.02304687 15.9815625 4.77734375 15.328125 C3.55198242 11.96713393 3 9.63128413 3 6 C2.34 6 1.68 6 1 6 C0.67 4.02 0.34 2.04 0 0 Z " fill="#06EE05" transform="translate(254,206)"/>
<path d="M0 0 C4.41556798 5.70666973 8.43405283 11.64268683 9 19 C8.34 19 7.68 19 7 19 C7.66 20.65 8.32 22.3 9 24 C5.31420878 20.77085548 3.31643755 17.11346469 1.25 12.75 C0.93417969 12.1003125 0.61835938 11.450625 0.29296875 10.78125 C-0.47873965 9.19106299 -1.24040275 7.59600771 -2 6 C-1.34 6 -0.68 6 0 6 C0.66 7.98 1.32 9.96 2 12 C2.66 12 3.32 12 4 12 C3.71125 11.38511719 3.4225 10.77023437 3.125 10.13671875 C2.75375 9.32847656 2.3825 8.52023437 2 7.6875 C1.443125 6.48673828 1.443125 6.48673828 0.875 5.26171875 C0 3 0 3 0 0 Z " fill="#2DD427" transform="translate(143,276)"/>
<path d="M0 0 C0.33 0 0.66 0 1 0 C1 8.25 1 16.5 1 25 C0.01 25.33 -0.98 25.66 -2 26 C-2.05785647 22.04172765 -2.09354717 18.0835633 -2.125 14.125 C-2.14175781 12.99707031 -2.15851563 11.86914062 -2.17578125 10.70703125 C-2.18222656 9.63066406 -2.18867188 8.55429688 -2.1953125 7.4453125 C-2.20578613 6.45031738 -2.21625977 5.45532227 -2.22705078 4.43017578 C-2 2 -2 2 0 0 Z " fill="#5F5F5F" transform="translate(309,234)"/>
<path d="M0 0 C1.75 0.125 1.75 0.125 4 1 C7.41519003 5.01787062 8.61230474 8.71380642 9.5625 13.76171875 C10.0159515 16.27632457 10.0159515 16.27632457 11.125 19.75 C11.9172779 22.6927465 12.18306075 24.97949759 12 28 C10.4246455 25.0289367 9.30965336 22.06325527 8.25 18.875 C6.46625192 13.83456035 4.09815893 9.55560866 1.171875 5.09375 C0 3 0 3 0 0 Z " fill="#17CC12" transform="translate(247,201)"/>
<path d="M0 0 C0.99 0.33 1.98 0.66 3 1 C-4.22498759 10.15319971 -11.61316515 15.28998085 -23 18 C-23.33 17.34 -23.66 16.68 -24 16 C-20.38026598 14.68373308 -17.90432869 14 -14 14 C-14 13.34 -14 12.68 -14 12 C-13.01 12 -12.02 12 -11 12 C-11 11.34 -11 10.68 -11 10 C-10.01 10 -9.02 10 -8 10 C-8 9.34 -8 8.68 -8 8 C-7.34 8 -6.68 8 -6 8 C-6 7.34 -6 6.68 -6 6 C-4.37550757 4.29220027 -2.70779973 2.62449243 -1 1 C-0.67 0.67 -0.34 0.34 0 0 Z " fill="#C0E2BE" transform="translate(239,291)"/>
<path d="M0 0 C4.59442501 3.75907501 8.78744085 7.76662724 12.9375 12 C17.34817444 16.48795785 21.80941456 20.40651777 27 24 C26.34 24.66 25.68 25.32 25 26 C22.58112083 23.91922439 20.16530115 21.83492724 17.75 19.75 C17.06808594 19.16347656 16.38617188 18.57695312 15.68359375 17.97265625 C8.33128132 11.61968726 8.33128132 11.61968726 6 9 C6 8.34 6 7.68 6 7 C5.34 7 4.68 7 4 7 C0 2.52941176 0 2.52941176 0 0 Z " fill="#C0C0C0" transform="translate(95,375)"/>
<path d="M0 0 C3.83551785 0.51831322 5.36601932 1.25627013 8 4 C8.804375 4.28875 9.60875 4.5775 10.4375 4.875 C13.68124583 6.29908353 15.03784221 8.09309957 17 11 C17 11.66 17 12.32 17 13 C17.99 13.33 18.98 13.66 20 14 C20 14.66 20 15.32 20 16 C20.66 16 21.32 16 22 16 C22 16.99 22 17.98 22 19 C15.47488512 15.84994454 15.47488512 15.84994454 13.69921875 12.671875 C11.60631547 9.38096501 8.95441593 7.44823093 5.8125 5.25 C3.85570994 3.85519463 1.92249827 2.44261885 0 1 C0 0.67 0 0.34 0 0 Z " fill="#109E0F" transform="translate(225,185)"/>
<path d="M0 0 C0 0.33 0 0.66 0 1 C1.65 1.33 3.3 1.66 5 2 C4.67 3.32 4.34 4.64 4 6 C3.13375 6.144375 2.2675 6.28875 1.375 6.4375 C-0.295625 6.7159375 -0.295625 6.7159375 -2 7 C-4 7.33333333 -6 7.66666667 -8 8 C-7.67 5.36 -7.34 2.72 -7 0 C-3.86650268 -1.04449911 -3.01031744 -0.93423645 0 0 Z " fill="#28EF1B" transform="translate(207,314)"/>
<path d="M0 0 C5.72201764 -0.17941377 10.65004138 0.35000464 16.1875 1.75 C17.28082642 2.01635254 17.28082642 2.01635254 18.39624023 2.28808594 C25.01293032 3.93196615 31.51954952 5.88117445 38 8 C37.67 8.99 37.34 9.98 37 11 C36.44763672 10.80365967 35.89527344 10.60731934 35.32617188 10.4050293 C23.63378151 6.28435776 12.28134287 2.82396181 0 1 C0 0.67 0 0.34 0 0 Z " fill="#5D5D5D" transform="translate(292,28)"/>
<path d="M0 0 C0.33 0.99 0.66 1.98 1 3 C-4.22898165 7.51593869 -8.40196125 8.76405151 -15.23046875 9.640625 C-17.91211129 9.93208916 -17.91211129 9.93208916 -20.12890625 10.54296875 C-23.07066538 11.26151952 -25.98859917 11.05791155 -29 11 C-25.63877723 8.75918482 -23.19489609 8.27882069 -19.25 7.5 C-17.99832031 7.24089844 -16.74664062 6.98179687 -15.45703125 6.71484375 C-14.31621094 6.47894531 -13.17539063 6.24304688 -12 6 C-7.10307917 4.94412743 -3.77340912 3.43037193 0 0 Z " fill="#16C811" transform="translate(233,304)"/>
<path d="M0 0 C0.33 1.32 0.66 2.64 1 4 C0.34 4 -0.32 4 -1 4 C-1.10957031 4.81984375 -1.21914062 5.6396875 -1.33203125 6.484375 C-1.49058594 7.56203125 -1.64914063 8.6396875 -1.8125 9.75 C-1.96332031 10.81734375 -2.11414063 11.8846875 -2.26953125 12.984375 C-3 16 -3 16 -4.5390625 18.0390625 C-6.45431809 20.60980664 -6.42998563 22.45320432 -6.5625 25.625 C-6.79102384 30.79102384 -6.79102384 30.79102384 -9 33 C-9.64904751 21.74984311 -6.26720637 9.40080956 0 0 Z " fill="#2ABC29" transform="translate(144,205)"/>
<path d="M0 0 C5.59262989 1.09124486 8.16310264 3.92199557 11.77734375 8.02734375 C12.38255859 9.00380859 12.38255859 9.00380859 13 10 C12.67 10.99 12.34 11.98 12 13 C11.01 13 10.02 13 9 13 C8.896875 12.360625 8.79375 11.72125 8.6875 11.0625 C8.460625 10.381875 8.23375 9.70125 8 9 C7.01 8.67 6.02 8.34 5 8 C2.3125 5.625 2.3125 5.625 0 3 C0 2.01 0 1.02 0 0 Z " fill="#0AEE04" transform="translate(238,186)"/>
<path d="M0 0 C0 0.33 0 0.66 0 1 C-0.86882812 1.04898438 -1.73765625 1.09796875 -2.6328125 1.1484375 C-3.78523438 1.22320312 -4.93765625 1.29796875 -6.125 1.375 C-7.83042969 1.47941406 -7.83042969 1.47941406 -9.5703125 1.5859375 C-12.96156686 1.99536001 -15.7990914 2.83938278 -19 4 C-19.763125 4.12375 -20.52625 4.2475 -21.3125 4.375 C-24.77237199 5.17962139 -27.73850542 6.68629108 -30.9140625 8.2578125 C-33 9 -33 9 -36 8 C-23.5752661 0.61483107 -14.12274392 -0.31191336 0 0 Z " fill="#C4E4C3" transform="translate(210,182)"/>
<path d="M0 0 C0.33 1.32 0.66 2.64 1 4 C0.34 4 -0.32 4 -1 4 C-1 4.66 -1 5.32 -1 6 C-2.97321053 7.3726682 -4.97543152 8.70427617 -7 10 C-7.66 10.66 -8.32 11.32 -9 12 C-11.1640625 12.4140625 -11.1640625 12.4140625 -13.625 12.625 C-14.44226563 12.69976562 -15.25953125 12.77453125 -16.1015625 12.8515625 C-16.72804687 12.90054687 -17.35453125 12.94953125 -18 13 C-14.57857139 10.17062188 -11.0856046 7.71195701 -7.3125 5.375 C-3.4279351 2.975354 -3.4279351 2.975354 0 0 Z " fill="#169414" transform="translate(236,298)"/>
<path d="M0 0 C0.99 0 1.98 0 3 0 C3 0.66 3 1.32 3 2 C2.39671875 2.13277344 1.7934375 2.26554688 1.171875 2.40234375 C-0.02695313 2.66724609 -0.02695313 2.66724609 -1.25 2.9375 C-2.03890625 3.11152344 -2.8278125 3.28554687 -3.640625 3.46484375 C-5.76878703 3.947556 -7.88532842 4.46163178 -10 5 C-10 5.66 -10 6.32 -10 7 C-19.41002278 12.37129841 -19.41002278 12.37129841 -24 14 C-22.37660195 12.29115995 -20.70680947 10.62553283 -19 9 C-18.34 9 -17.68 9 -17 9 C-17 8.34 -17 7.68 -17 7 C-16.360625 6.896875 -15.72125 6.79375 -15.0625 6.6875 C-14.0415625 6.3471875 -14.0415625 6.3471875 -13 6 C-12.67 5.01 -12.34 4.02 -12 3 C-9.11788698 2.03929566 -7.30149956 1.89418117 -4.3125 1.9375 C-3.10013672 1.95103516 -3.10013672 1.95103516 -1.86328125 1.96484375 C-0.94095703 1.98224609 -0.94095703 1.98224609 0 2 C0 1.34 0 0.68 0 0 Z " fill="#16DC0F" transform="translate(189,171)"/>
<path d="M0 0 C0.33 0 0.66 0 1 0 C1.27338172 6.06907418 0.46092445 10.77622054 -1.5 16.5 C-1.73847656 17.22703125 -1.97695313 17.9540625 -2.22265625 18.703125 C-2.80460176 20.47223935 -3.40080457 22.23665346 -4 24 C-5.3144686 20.2255973 -4.80507887 17.03578296 -4.25 13.125 C-4.09015625 11.93132812 -3.9303125 10.73765625 -3.765625 9.5078125 C-2.98617578 5.93666252 -1.77111027 3.18215966 0 0 Z " fill="#118510" transform="translate(259,253)"/>
<path d="M0 0 C1.98 0 3.96 0 6 0 C5.95875 0.886875 5.9175 1.77375 5.875 2.6875 C5.99897246 5.97277013 6.61387904 8.05449295 8 11 C7.34 11 6.68 11 6 11 C6 10.34 6 9.68 6 9 C3.69 9 1.38 9 -1 9 C-1.33 9.66 -1.66 10.32 -2 11 C-2 9.68 -2 8.36 -2 7 C-1.34 6.67 -0.68 6.34 0 6 C0 4.02 0 2.04 0 0 Z " fill="#6C6C6C" transform="translate(222,209)"/>
<path d="M0 0 C2.33294775 -0.04241723 4.66702567 -0.04092937 7 0 C7.33 0.33 7.66 0.66 8 1 C13.66333103 2.07550642 19.18714219 2.11934764 24.9375 2.0625 C25.81212891 2.05798828 26.68675781 2.05347656 27.58789062 2.04882812 C29.72529047 2.03714834 31.86265463 2.01921689 34 2 C29.71143316 4.85904456 25.98179027 4.32995429 20.9375 4.3125 C19.58108398 4.33666992 19.58108398 4.33666992 18.19726562 4.36132812 C11.67319327 4.36599151 6.13407156 3.19530821 0 1 C0 0.67 0 0.34 0 0 Z " fill="#C4E4C4" transform="translate(182,307)"/>
<path d="M0 0 C2.46240434 3.69360652 3.21283669 7.35145565 4.125 11.625 C4.30385742 12.4600708 4.48271484 13.2951416 4.66699219 14.15551758 C6.31420077 22.47862725 6.38930753 30.55418945 6 39 C5.67 39 5.34 39 5 39 C4.92652344 37.54980469 4.92652344 37.54980469 4.8515625 36.0703125 C5.00891364 23.74039134 5.00891364 23.74039134 1 13 C0.76518307 10.81707226 0.58636677 8.62796826 0.4375 6.4375 C0.35371094 5.23996094 0.26992188 4.04242188 0.18359375 2.80859375 C0.12300781 1.88175781 0.06242187 0.95492187 0 0 Z " fill="#47C643" transform="translate(264,216)"/>
<path d="M0 0 C-2 2 -2 2 -5.9140625 2.1953125 C-7.48449351 2.18200376 -9.05486221 2.15813602 -10.625 2.125 C-11.42679688 2.11597656 -12.22859375 2.10695312 -13.0546875 2.09765625 C-15.03658523 2.07406223 -17.01832981 2.03819065 -19 2 C-19 1.34 -19 0.68 -19 0 C-16.23447545 -1.38276228 -13.70111052 -1.4213646 -10.625 -1.6875 C-8.91183594 -1.84798828 -8.91183594 -1.84798828 -7.1640625 -2.01171875 C-4.0472346 -2.00017494 -2.58040206 -1.6588299 0 0 Z " fill="#3AE533" transform="translate(211,179)"/>
<path d="M0 0 C3.53571429 0.53571429 3.53571429 0.53571429 5 2 C5.1875 4.4375 5.1875 4.4375 5 7 C4.34 7.66 3.68 8.32 3 9 C0.375 8.625 0.375 8.625 -2 8 C-2.125 5.125 -2.125 5.125 -2 2 C-1.34 1.34 -0.68 0.68 0 0 Z " fill="#646464" transform="translate(211,126)"/>
<path d="M0 0 C2.33294775 -0.04241723 4.66702567 -0.04092937 7 0 C8 1 8 1 8.0625 4.5625 C8.041875 5.696875 8.02125 6.83125 8 8 C5.36 8 2.72 8 0 8 C0 5.36 0 2.72 0 0 Z " fill="#797979" transform="translate(196,355)"/>
<path d="M0 0 C-0.33 0.66 -0.66 1.32 -1 2 C-1.99 2 -2.98 2 -4 2 C-4 2.66 -4 3.32 -4 4 C-5.24716797 4.16435547 -5.24716797 4.16435547 -6.51953125 4.33203125 C-7.60621094 4.49058594 -8.69289062 4.64914063 -9.8125 4.8125 C-11.43091797 5.03873047 -11.43091797 5.03873047 -13.08203125 5.26953125 C-16.01973303 5.73918544 -16.01973303 5.73918544 -17.63671875 7.63671875 C-18.31154297 8.31154297 -18.31154297 8.31154297 -19 9 C-21.1875 8.6875 -21.1875 8.6875 -23 8 C-8.27960757 -0.62097057 -8.27960757 -0.62097057 0 0 Z " fill="#3CC73A" transform="translate(193,169)"/>
<path d="M0 0 C0.33 0 0.66 0 1 0 C1 6.27 1 12.54 1 19 C0.34 18.67 -0.32 18.34 -1 18 C-1 17.34 -1 16.68 -1 16 C-1.99 16 -2.98 16 -4 16 C-4 14.68 -4 13.36 -4 12 C-3.34 11.67 -2.68 11.34 -2 11 C-1.57014306 8.67646015 -1.57014306 8.67646015 -1.4375 6 C-1.09618321 1.09618321 -1.09618321 1.09618321 0 0 Z " fill="#47F335" transform="translate(267,235)"/>
<path d="M0 0 C-2.73894671 1.43763719 -5.43259623 2.55017142 -8.375 3.5 C-9.54482422 3.88091797 -9.54482422 3.88091797 -10.73828125 4.26953125 C-11.85783203 4.63111328 -11.85783203 4.63111328 -13 5 C-14.7634375 5.5878125 -14.7634375 5.5878125 -16.5625 6.1875 C-17.366875 6.455625 -18.17125 6.72375 -19 7 C-18.8203125 5.14453125 -18.8203125 5.14453125 -18 3 C-12.1873948 -0.34878466 -6.47728407 -1.72727575 0 0 Z " fill="#3CC937" transform="translate(194,182)"/>
<path d="M0 0 C2.31 0 4.62 0 7 0 C7.33 1.98 7.66 3.96 8 6 C5.03 6 2.06 6 -1 6 C-0.67 4.02 -0.34 2.04 0 0 Z " fill="#717171" transform="translate(185,136)"/>
<path d="M0 0 C2.7084017 -0.02714434 5.41652721 -0.04690846 8.125 -0.0625 C8.88554687 -0.07087891 9.64609375 -0.07925781 10.4296875 -0.08789062 C14.7389644 -0.10646509 18.75516474 0.13882735 23 1 C21.68 1.33 20.36 1.66 19 2 C19 2.66 19 3.32 19 4 C19.99 4.33 20.98 4.66 22 5 C20.68 5 19.36 5 18 5 C18 4.34 18 3.68 18 3 C16.329375 3.061875 16.329375 3.061875 14.625 3.125 C9.60098664 3.14300722 4.8781803 2.11958236 0 1 C0 0.67 0 0.34 0 0 Z " fill="#C0C0C0" transform="translate(245,24)"/>
<path d="M0 0 C2.91635013 1.45817507 3.06052393 3.27282944 4.125 6.3125 C6.1794084 12.65073036 6.42177816 18.39214219 6 25 C5.34 25 4.68 25 4 25 C3.87882812 24.11699219 3.75765625 23.23398438 3.6328125 22.32421875 C2.58866891 14.84654428 1.42250087 7.41516409 0 0 Z " fill="#069405" transform="translate(255,221)"/>
<path d="M0 0 C5.6659651 1.01987372 8.23611942 2.76553059 11.93359375 7.1484375 C13 9 13 9 13 13 C12.34 13 11.68 13 11 13 C9.62751319 11.44684614 8.32521299 9.83114316 7.0625 8.1875 C4.82899976 5.29438661 2.66127202 2.5111062 0 0 Z " fill="#19E412" transform="translate(234,188)"/>
<path d="M0 0 C6.75873071 6.05259467 9.48833949 15.13121784 10 24 C8 23 8 23 7.3671875 21.15234375 C7.20476562 20.42144531 7.04234375 19.69054687 6.875 18.9375 C6.62363281 17.83728516 6.62363281 17.83728516 6.3671875 16.71484375 C6.24601563 16.14894531 6.12484375 15.58304688 6 15 C5.34 15 4.68 15 4 15 C4.061875 14.071875 4.12375 13.14375 4.1875 12.1875 C3.96970704 8.48501975 3.50445833 8.40428 1 6 C0.3125 2.8125 0.3125 2.8125 0 0 Z " fill="#B2D7B1" transform="translate(246,209)"/>
<path d="M0 0 C0.66 1.32 1.32 2.64 2 4 C-2.455 7.465 -2.455 7.465 -7 11 C-7.66 10.67 -8.32 10.34 -9 10 C-7.61811547 6.78956118 -6.07578097 4.95063635 -3.375 2.75 C-2.74335938 2.22921875 -2.11171875 1.7084375 -1.4609375 1.171875 C-0.73777344 0.59179688 -0.73777344 0.59179688 0 0 Z " fill="#5F5F5F" transform="translate(377,426)"/>
<path d="M0 0 C0.66 0 1.32 0 2 0 C2.28571429 7.42857143 2.28571429 7.42857143 0 11 C-0.66 11 -1.32 11 -2 11 C-2.33 11.99 -2.66 12.98 -3 14 C-3.66 13.67 -4.32 13.34 -5 13 C-3.3770361 8.64750591 -1.74849671 4.3039919 0 0 Z " fill="#09EE04" transform="translate(259,273)"/>
<path d="M0 0 C2.24556268 3.92712357 3.32671929 8.18026804 4.5625 12.5 C4.78357422 13.25925781 5.00464844 14.01851563 5.23242188 14.80078125 C6.21428225 18.18834784 7.15932208 21.57427329 8 25 C7.34 25.33 6.68 25.66 6 26 C5.73445312 25.09636719 5.46890625 24.19273437 5.1953125 23.26171875 C4.84210938 22.08222656 4.48890625 20.90273438 4.125 19.6875 C3.77695313 18.51574219 3.42890625 17.34398437 3.0703125 16.13671875 C2.11234547 12.89088275 2.11234547 12.89088275 0 10 C-0.1953125 7.51953125 -0.1953125 7.51953125 -0.125 4.8125 C-0.10695312 3.91144531 -0.08890625 3.01039063 -0.0703125 2.08203125 C-0.04710937 1.39496094 -0.02390625 0.70789063 0 0 Z " fill="#39C735" transform="translate(145,255)"/>
<path d="M0 0 C2.475 0.495 2.475 0.495 5 1 C5 1.66 5 2.32 5 3 C7.475 3.99 7.475 3.99 10 5 C10 5.99 10 6.98 10 8 C8.68 8 7.36 8 6 8 C6 7.34 6 6.68 6 6 C3.03 5.505 3.03 5.505 0 5 C0 3.35 0 1.7 0 0 Z " fill="#08ED04" transform="translate(226,176)"/>
<path d="M0 0 C2.81666361 0.58842283 5.62726432 1.19474236 8.4375 1.8125 C9.23994141 1.97814453 10.04238281 2.14378906 10.86914062 2.31445312 C12.93749958 2.77699753 14.97333737 3.37976241 17 4 C17.33 4.99 17.66 5.98 18 7 C5.12970406 5.41724516 5.12970406 5.41724516 0 1 C0 0.67 0 0.34 0 0 Z " fill="#12DE0D" transform="translate(176,316)"/>
<path d="M0 0 C0.33 0 0.66 0 1 0 C1.02505615 0.62567871 1.0501123 1.25135742 1.07592773 1.89599609 C1.19175273 4.72254619 1.31453985 7.54875169 1.4375 10.375 C1.47681641 11.35984375 1.51613281 12.3446875 1.55664062 13.359375 C1.59853516 14.30039063 1.64042969 15.24140625 1.68359375 16.2109375 C1.72025146 17.08024902 1.75690918 17.94956055 1.79467773 18.84521484 C1.87401544 21.0483262 1.87401544 21.0483262 3 23 C3.06950541 24.54023996 3.08452357 26.08334988 3.0625 27.625 C3.05347656 28.44226563 3.04445312 29.25953125 3.03515625 30.1015625 C3.02355469 30.72804688 3.01195312 31.35453125 3 32 C0.0094383 27.51415744 -0.12600227 23.56242411 -0.09765625 18.26171875 C-0.09443359 17.19501953 -0.09121094 16.12832031 -0.08789062 15.02929688 C-0.07951172 13.92650391 -0.07113281 12.82371094 -0.0625 11.6875 C-0.05798828 10.56537109 -0.05347656 9.44324219 -0.04882812 8.28710938 C-0.03707313 5.5246849 -0.02064077 2.76237002 0 0 Z " fill="#BDEDB9" transform="translate(146,235)"/>
<path d="M0 0 C0.66 0.99 1.32 1.98 2 3 C0.35 3.66 -1.3 4.32 -3 5 C-3 5.66 -3 6.32 -3 7 C-4.97321053 8.3726682 -6.97543152 9.70427617 -9 11 C-9.66 11.66 -10.32 12.32 -11 13 C-13.625 13.125 -13.625 13.125 -16 13 C-12.03882352 9.80550284 -8.02055363 6.68977069 -3.98828125 3.5859375 C-1.93120423 2.00577876 -1.93120423 2.00577876 0 0 Z " fill="#C6E9C6" transform="translate(246,306)"/>
<path d="M0 0 C1.78019614 3.5085419 3.45951808 7.06070778 5.125 10.625 C5.66382813 11.77226562 6.20265625 12.91953125 6.7578125 14.1015625 C8 17 8 17 8 19 C7.34 19 6.68 19 6 19 C5.34 17.02 4.68 15.04 4 13 C3.34 13 2.68 13 2 13 C0.54815522 8.46298506 -0.23509196 4.81938524 0 0 Z " fill="#12C90E" transform="translate(139,269)"/>
<path d="M0 0 C0.33 0.66 0.66 1.32 1 2 C0.67 2.99 0.34 3.98 0 5 C3.465 4.505 3.465 4.505 7 4 C4.53379711 6.46620289 2.00595031 7.59283283 -1.125 9.125 C-2.22070312 9.66382813 -3.31640625 10.20265625 -4.4453125 10.7578125 C-5.28835937 11.16773438 -6.13140625 11.57765625 -7 12 C-7.33 11.34 -7.66 10.68 -8 10 C-7.34 9.34 -6.68 8.68 -6 8 C-4.68 8 -3.36 8 -2 8 C-2.33 5.69 -2.66 3.38 -3 1 C-2.01 0.67 -1.02 0.34 0 0 Z " fill="#C8E6C7" transform="translate(174,167)"/>
<path d="M0 0 C3.71080883 4.42442592 6.84577733 9.17403931 10 14 C5.61156157 12.39429653 3.51717283 11.04545634 1 7 C0.25 3.1875 0.25 3.1875 0 0 Z " fill="#34CD30" transform="translate(153,280)"/>
<path d="M0 0 C0.99 0 1.98 0 3 0 C3.19573608 1.43640171 3.38127816 2.87419504 3.5625 4.3125 C3.66691406 5.11300781 3.77132812 5.91351563 3.87890625 6.73828125 C4 9 4 9 3 12 C2.01 12 1.02 12 0 12 C0 8.04 0 4.08 0 0 Z " fill="#B3B3B3" transform="translate(223,268)"/>
<path d="M0 0 C4.47601568 4.26287207 6.68130028 7.84606797 8 14 C7.67 15.32 7.34 16.64 7 18 C3.04 9.585 3.04 9.585 -1 1 C-0.67 0.67 -0.34 0.34 0 0 Z " fill="#C3EDC4" transform="translate(257,198)"/>
<path d="M0 0 C2.0625 0.4375 2.0625 0.4375 4 1 C4 2.98 4 4.96 4 7 C2.0625 7.5625 2.0625 7.5625 0 8 C-1 7 -1 7 -1.125 4 C-1 1 -1 1 0 0 Z " fill="#838383" transform="translate(211,355)"/>
<path d="M0 0 C3.23891184 1.04788324 5.57636566 2.3579313 8.125 4.5625 C10.80604196 7.14217763 10.80604196 7.14217763 14 8 C15.1875 10.0625 15.1875 10.0625 16 12 C11.15539084 10.70005355 8.27543805 8.85224911 4.625 5.4375 C3.75101563 4.63183594 2.87703125 3.82617188 1.9765625 2.99609375 C0 1 0 1 0 0 Z " fill="#29F31A" transform="translate(159,302)"/>
<path d="M0 0 C-1.44992269 4.10811428 -3.45407573 7.46855666 -6 11 C-6.33 11 -6.66 11 -7 11 C-6.979375 10.05125 -6.95875 9.1025 -6.9375 8.125 C-6.77448174 5.09333717 -6.77448174 5.09333717 -8 3 C-2.25 0 -2.25 0 0 0 Z " fill="#C3DEC3" transform="translate(250,279)"/>
<path d="M0 0 C-0.80824219 0.32613281 -1.61648437 0.65226563 -2.44921875 0.98828125 C-3.51785156 1.42527344 -4.58648437 1.86226562 -5.6875 2.3125 C-6.74324219 2.74175781 -7.79898438 3.17101562 -8.88671875 3.61328125 C-12.01546996 4.92046793 -12.01546996 4.92046793 -14.76953125 6.73046875 C-15.50558594 7.14941406 -16.24164063 7.56835938 -17 8 C-17.66 7.67 -18.32 7.34 -19 7 C-17.71186658 6.16121545 -16.41936744 5.32913217 -15.125 4.5 C-14.40570313 4.0359375 -13.68640625 3.571875 -12.9453125 3.09375 C-11 2 -11 2 -9 2 C-9 1.34 -9 0.68 -9 0 C-5.5657338 -0.85856655 -3.38317487 -0.97591583 0 0 Z " fill="#2DF71E" transform="translate(188,176)"/>
<path d="M0 0 C2.475 0.495 2.475 0.495 5 1 C5 2.65 5 4.3 5 6 C3.02 6.99 3.02 6.99 1 8 C0 7 0 7 -0.0625 3.4375 C-0.041875 2.303125 -0.02125 1.16875 0 0 Z " fill="#868686" transform="translate(189,355)"/>
<path d="M0 0 C0.33 0 0.66 0 1 0 C0.8858134 1.93816735 0.75826577 3.87555099 0.625 5.8125 C0.55539063 6.89144531 0.48578125 7.97039062 0.4140625 9.08203125 C0 12 0 12 -2 15 C-2.99 14.67 -3.98 14.34 -5 14 C-3.35 9.38 -1.7 4.76 0 0 Z " fill="#2B882A" transform="translate(254,267)"/>
<path d="M0 0 C0.66 0 1.32 0 2 0 C2 0.66 2 1.32 2 2 C3.32 2 4.64 2 6 2 C6.33 1.34 6.66 0.68 7 0 C7 1.98 7 3.96 7 6 C4.69 6 2.38 6 0 6 C0 4.02 0 2.04 0 0 Z " fill="#777777" transform="translate(217,220)"/>
<path d="M0 0 C1.75 0.125 1.75 0.125 4 1 C6.3125 3.8125 6.3125 3.8125 8 7 C7.75 9.375 7.75 9.375 7 11 C6.67 9.68 6.34 8.36 6 7 C5.38125 6.896875 4.7625 6.79375 4.125 6.6875 C2 6 2 6 0 3 C0 2.01 0 1.02 0 0 Z " fill="#17E211" transform="translate(247,201)"/>
<path d="M0 0 C0.66 0.33 1.32 0.66 2 1 C1.38461538 7.52307692 1.38461538 7.52307692 -0.5625 9.9375 C-1.036875 10.288125 -1.51125 10.63875 -2 11 C-2.96891192 5.62694301 -2.96891192 5.62694301 -3 3 C-1.5625 1 -1.5625 1 0 0 Z " fill="#CAE5CA" transform="translate(147,192)"/>
<path d="M0 0 C4.45673159 0.49871064 6.57687178 2.02004362 9.8125 5.0625 C10.60269531 5.79597656 11.39289063 6.52945313 12.20703125 7.28515625 C13.09455078 8.13400391 13.09455078 8.13400391 14 9 C13.67 9.99 13.34 10.98 13 12 C12.56429687 11.54109375 12.12859375 11.0821875 11.6796875 10.609375 C8.00836276 6.82679799 4.44365055 3.81792474 0 1 C0 0.67 0 0.34 0 0 Z " fill="#499A4B" transform="translate(226,188)"/>
<path d="M0 0 C1 3 1 3 -0.36328125 6.1015625 C-1.00255949 7.28176849 -1.65276434 8.45610664 -2.3125 9.625 C-2.79493164 10.5221875 -2.79493164 10.5221875 -3.28710938 11.4375 C-5.72481216 15.86240608 -5.72481216 15.86240608 -8 17 C-7.44271087 13.65626525 -6.64826111 10.96687001 -5 8 C-4.34 8 -3.68 8 -3 8 C-3 6.68 -3 5.36 -3 4 C-2.34 4 -1.68 4 -1 4 C-0.67 2.68 -0.34 1.36 0 0 Z " fill="#35C132" transform="translate(262,279)"/>
<path d="M0 0 C0.66 0 1.32 0 2 0 C2 0.66 2 1.32 2 2 C3.32 2.33 4.64 2.66 6 3 C6 4.65 6 6.3 6 8 C4.68 7.34 3.36 6.68 2 6 C2 6.66 2 7.32 2 8 C1.34 8 0.68 8 0 8 C0 5.36 0 2.72 0 0 Z " fill="#D0D0D0" transform="translate(183,353)"/>
<path d="M0 0 C3.74525799 3.74525799 3.68909949 7.98270909 4 13 C0.36827755 9.13397287 -0.69457852 6.29397231 -1 1 C-0.67 0.67 -0.34 0.34 0 0 Z " fill="#0BED04" transform="translate(146,271)"/>
<path d="M0 0 C0.33 0 0.66 0 1 0 C1.125 7.75 1.125 7.75 0 10 C-1.32 10 -2.64 10 -4 10 C-2.99806563 6.20696275 -2.18975773 3.28463659 0 0 Z " fill="#14EE08" transform="translate(143,229)"/>
<path d="M0 0 C0.33 0 0.66 0 1 0 C0.85764543 1.72945653 0.71095618 3.45855654 0.5625 5.1875 C0.48128906 6.15042969 0.40007812 7.11335937 0.31640625 8.10546875 C0.02333849 10.78649602 -0.42703754 13.3662986 -1 16 C-1.66 16 -2.32 16 -3 16 C-2.88628503 13.70774565 -2.75869036 11.41617612 -2.625 9.125 C-2.55539063 7.84882813 -2.48578125 6.57265625 -2.4140625 5.2578125 C-2 2 -2 2 0 0 Z " fill="#0ED30B" transform="translate(139,223)"/>
<path d="M0 0 C0.66 0.66 1.32 1.32 2 2 C1.86328125 4.27734375 1.86328125 4.27734375 1.3125 6.9375 C1.14363281 7.81277344 0.97476563 8.68804687 0.80078125 9.58984375 C-0.0525005 12.15801371 -0.94665558 13.28605135 -3 15 C-2.69257097 12.68682039 -2.37892298 10.37446648 -2.0625 8.0625 C-1.88847656 6.77472656 -1.71445313 5.48695313 -1.53515625 4.16015625 C-1 1 -1 1 0 0 Z " fill="#21E916" transform="translate(142,216)"/>
<path d="M0 0 C3.83551785 0.51831322 5.36601932 1.25627013 8 4 C8.86625 4.33 9.7325 4.66 10.625 5 C11.40875 5.33 12.1925 5.66 13 6 C13.33 6.99 13.66 7.98 14 9 C10.26234143 8.37123501 7.80966403 6.6829182 4.75 4.5 C3.85796875 3.8709375 2.9659375 3.241875 2.046875 2.59375 C1.37140625 2.0678125 0.6959375 1.541875 0 1 C0 0.67 0 0.34 0 0 Z " fill="#0EAC0B" transform="translate(225,185)"/>
<path d="M0 0 C0.66 0.33 1.32 0.66 2 1 C1.67 1.99 1.34 2.98 1 4 C-1.06640625 4.94921875 -1.06640625 4.94921875 -3.5625 5.6875 C-4.38878906 5.93886719 -5.21507812 6.19023437 -6.06640625 6.44921875 C-6.70449219 6.63097656 -7.34257812 6.81273437 -8 7 C-8.33 6.01 -8.66 5.02 -9 4 C-7.54618103 3.30300448 -6.08677047 2.61766134 -4.625 1.9375 C-3.40683594 1.36322266 -3.40683594 1.36322266 -2.1640625 0.77734375 C-1.44992187 0.52082031 -0.73578125 0.26429688 0 0 Z " fill="#F4F4F4" transform="translate(291,438)"/>
<path d="M0 0 C-0.33 1.32 -0.66 2.64 -1 4 C-1.969375 4.144375 -2.93875 4.28875 -3.9375 4.4375 C-6.86486773 4.67562341 -6.86486773 4.67562341 -8 6 C-10.33297433 6.04092937 -12.66705225 6.04241723 -15 6 C-12.29954818 4.19969878 -9.93322119 3.06622934 -6.9375 1.875 C-6.05964844 1.52179688 -5.18179688 1.16859375 -4.27734375 0.8046875 C-2 0 -2 0 0 0 Z " fill="#C7E6C4" transform="translate(230,319)"/>
<path d="M0 0 C1.32 0.66 2.64 1.32 4 2 C1.92391901 5.94455388 1.17799643 6.91100178 -3 9 C-2.01 6.03 -1.02 3.06 0 0 Z " fill="#CAE7CB" transform="translate(265,275)"/>
<path d="M0 0 C0.66 0 1.32 0 2 0 C2 4.95 2 9.9 2 15 C1.01 14.67 0.02 14.34 -1 14 C-0.67 9.38 -0.34 4.76 0 0 Z " fill="#56DA4E" transform="translate(144,240)"/>
<path d="M0 0 C0.66 0 1.32 0 2 0 C2.33 1.32 2.66 2.64 3 4 C3.99 4 4.98 4 6 4 C6.33 5.65 6.66 7.3 7 9 C1.125 7.125 1.125 7.125 0 6 C-0.04080783 4.00041636 -0.04254356 1.99954746 0 0 Z " fill="#C9E0C7" transform="translate(228,168)"/>
<path d="M0 0 C6.16618181 -0.40214229 11.17745757 1.03181664 17 3 C17 3.33 17 3.66 17 4 C10.66606918 4.34548714 5.89738492 3.29342747 0 1 C0 0.67 0 0.34 0 0 Z " fill="#33A230" transform="translate(180,321)"/>
<path d="M0 0 C1 2 1 2 0.0625 5.125 C-0.288125 6.07375 -0.63875 7.0225 -1 8 C-3.97 7.01 -6.94 6.02 -10 5 C-10 4.67 -10 4.34 -10 4 C-9.36191406 3.79503906 -8.72382813 3.59007812 -8.06640625 3.37890625 C-7.24011719 3.10949219 -6.41382813 2.84007812 -5.5625 2.5625 C-4.73878906 2.29566406 -3.91507813 2.02882813 -3.06640625 1.75390625 C-1.03780412 1.17844506 -1.03780412 1.17844506 0 0 Z " fill="#23F316" transform="translate(196,314)"/>
<path d="M0 0 C3.125 -0.1875 3.125 -0.1875 6 0 C2.12975267 3.38646642 -2.10132476 6.32953125 -7 8 C-7.99 7.67 -8.98 7.34 -10 7 C-9.16855469 6.61908203 -9.16855469 6.61908203 -8.3203125 6.23046875 C-7.59585938 5.88628906 -6.87140625 5.54210937 -6.125 5.1875 C-5.40570313 4.85105469 -4.68640625 4.51460938 -3.9453125 4.16796875 C-1.69457194 3.00532903 -1.69457194 3.00532903 0 0 Z " fill="#3CB337" transform="translate(231,314)"/>
<path d="M0 0 C1.8125 0.1875 1.8125 0.1875 4 1 C5.8125 3.3125 5.8125 3.3125 7 6 C6.6875 8.3125 6.6875 8.3125 6 10 C5.67 9.01 5.34 8.02 5 7 C4.34 7 3.68 7 3 7 C0.70351351 4.4385343 0 3.52032428 0 0 Z " fill="#29F11D" transform="translate(151,291)"/>
<path d="M0 0 C0.33 0.99 0.66 1.98 1 3 C1.99 3 2.98 3 4 3 C6.30143236 6.45214853 6.13833854 7.23479324 5.625 11.1875 C5.51414062 12.08855469 5.40328125 12.98960937 5.2890625 13.91796875 C5.19367188 14.60503906 5.09828125 15.29210937 5 16 C4.67 16 4.34 16 4 16 C3.97421875 15.30132812 3.9484375 14.60265625 3.921875 13.8828125 C3.86515625 12.97273438 3.8084375 12.06265625 3.75 11.125 C3.70359375 10.22007812 3.6571875 9.31515625 3.609375 8.3828125 C3.24388852 5.82889456 3.24388852 5.82889456 0.953125 4.6796875 C0.30859375 4.45539063 -0.3359375 4.23109375 -1 4 C-0.67 2.68 -0.34 1.36 0 0 Z " fill="#2FEC24" transform="translate(262,248)"/>
<path d="M0 0 C1.175625 1.2065625 1.175625 1.2065625 2.375 2.4375 C4.71982856 4.98690417 4.71982856 4.98690417 7 6 C6.67 7.65 6.34 9.3 6 11 C2.71211176 7.88983545 0.16264012 4.98381075 -2 1 C-1.34 0.67 -0.68 0.34 0 0 Z " fill="#C8E9C7" transform="translate(249,186)"/>
<path d="M0 0 C0.66 0.33 1.32 0.66 2 1 C1.34 2.32 0.68 3.64 0 5 C0.66 5 1.32 5 2 5 C2.33 4.34 2.66 3.68 3 3 C3.33 4.98 3.66 6.96 4 9 C3.01 9.495 3.01 9.495 2 10 C2 10.66 2 11.32 2 12 C1.34 12 0.68 12 0 12 C-1.1671568 8.49852959 -1.13357453 5.67329964 -1 2 C-0.67 1.34 -0.34 0.68 0 0 Z " fill="#828282" transform="translate(218,264)"/>
<path d="M0 0 C0 0.66 0 1.32 0 2 C-5.12919186 4.10428384 -9.5610835 4.21755666 -15 4 C-10.11470435 1.4502185 -5.54842611 0 0 0 Z " fill="#13E10C" transform="translate(222,312)"/>
<path d="M0 0 C0.33 0.99 0.66 1.98 1 3 C-5.07439825 7.90153173 -5.07439825 7.90153173 -8.9375 8.3125 C-9.9584375 8.1578125 -9.9584375 8.1578125 -11 8 C-10 6 -10 6 -7.75 5.125 C-4.66221961 3.86181712 -2.52111915 2.16095927 0 0 Z " fill="#15D60C" transform="translate(233,304)"/>
<path d="M0 0 C3.71045247 1.57780923 6.29906384 3.90703248 9.25 6.625 C10.14203125 7.44226563 11.0340625 8.25953125 11.953125 9.1015625 C12.96632812 10.04128906 12.96632812 10.04128906 14 11 C13.67 11.66 13.34 12.32 13 13 C11.39179588 11.58791833 9.78859292 10.17013964 8.1875 8.75 C7.29417969 7.96109375 6.40085938 7.1721875 5.48046875 6.359375 C3.35871775 4.34120555 1.65745577 2.40083295 0 0 Z " fill="#46B044" transform="translate(152,301)"/>
<path d="M0 0 C1 4 1 4 0 6 C0.66 6 1.32 6 2 6 C1.67 6.99 1.34 7.98 1 9 C0.34 9 -0.32 9 -1 9 C-2.62514468 10.45833358 -2.62514468 10.45833358 -4 12 C-4.66 11.67 -5.32 11.34 -6 11 C-4.02 7.37 -2.04 3.74 0 0 Z " fill="#C2EAC0" transform="translate(261,284)"/>
<path d="M0 0 C2.12161334 2.12161334 2.92986249 3.7733159 4.125 6.5 C4.47820312 7.2940625 4.83140625 8.088125 5.1953125 8.90625 C6 11 6 11 6 13 C4 13 4 13 2.41796875 11.82421875 C0.57539843 9.45374949 0.50552268 7.78504922 0.3125 4.8125 C0.24675781 3.91144531 0.18101562 3.01039063 0.11328125 2.08203125 C0.07589844 1.39496094 0.03851563 0.70789063 0 0 Z " fill="#B8E8B7" transform="translate(139,278)"/>
<path d="M0 0 C0.66 0.33 1.32 0.66 2 1 C1.67 3.64 1.34 6.28 1 9 C0.01 9.33 -0.98 9.66 -2 10 C-2 7.03 -2 4.06 -2 1 C-1.34 0.67 -0.68 0.34 0 0 Z " fill="#676767" transform="translate(308,258)"/>
<path d="M0 0 C0.33 0.66 0.66 1.32 1 2 C2.32 2 3.64 2 5 2 C5.33 1.34 5.66 0.68 6 0 C6 1.98 6 3.96 6 6 C4.02 6 2.04 6 0 6 C0 4.02 0 2.04 0 0 Z " fill="#6B6B6B" transform="translate(226,220)"/>
<path d="M0 0 C0.66 0.33 1.32 0.66 2 1 C1.67 1.99 1.34 2.98 1 4 C-0.66666667 4.66666667 -2.33333333 5.33333333 -4 6 C-6.10971658 7.56495408 -8.02837862 9.25763692 -10 11 C-9.64701919 8.0991395 -9.11271704 7.10483324 -6.93359375 5.078125 C-6.10988281 4.47484375 -5.28617187 3.8715625 -4.4375 3.25 C-3.61121094 2.63640625 -2.78492187 2.0228125 -1.93359375 1.390625 C-1.29550781 0.93171875 -0.65742187 0.4728125 0 0 Z " fill="#CACACA" transform="translate(119,55)"/>
<path d="M0 0 C5.28 0.66 10.56 1.32 16 2 C16 2.33 16 2.66 16 3 C14.27185839 3.19672365 12.54240803 3.38196799 10.8125 3.5625 C9.84957031 3.66691406 8.88664063 3.77132813 7.89453125 3.87890625 C5.05766623 3.99758751 2.74576329 3.67765639 0 3 C0 2.01 0 1.02 0 0 Z " fill="#40BC3A" transform="translate(190,310)"/>
<path d="M0 0 C-1.44424635 3.23861303 -3.25772247 5.61969163 -5.625 8.25 C-6.25664062 8.95640625 -6.88828125 9.6628125 -7.5390625 10.390625 C-8.02117187 10.92171875 -8.50328125 11.4528125 -9 12 C-9.33 11.01 -9.66 10.02 -10 9 C-9.360625 8.566875 -8.72125 8.13375 -8.0625 7.6875 C-5.73253997 6.08760823 -5.73253997 6.08760823 -5 3 C-2.44444444 0 -2.44444444 0 0 0 Z " fill="#30BF2C" transform="translate(254,296)"/>
<path d="M0 0 C0.99 0 1.98 0 3 0 C3 2.97 3 5.94 3 9 C2.01 9 1.02 9 0 9 C0 6.03 0 3.06 0 0 Z " fill="#6F6F6F" transform="translate(175,209)"/>
<path d="M0 0 C-2.85276137 2.93200474 -5.65079784 5.64315404 -9 8 C-9 6.68 -9 5.36 -9 4 C-8.34 3.67 -7.68 3.34 -7 3 C-6.67 2.01 -6.34 1.02 -6 0 C-3.50907189 -1.24546405 -2.58919267 -0.7767578 0 0 Z " fill="#18D410" transform="translate(163,188)"/>
<path d="M0 0 C3.7602985 0.58107632 6.53035032 1.65199496 9.8125 3.5625 C10.60269531 4.01753906 11.39289063 4.47257813 12.20703125 4.94140625 C12.79871094 5.29074219 13.39039063 5.64007813 14 6 C13.01 6.495 13.01 6.495 12 7 C9.92803369 6.26821134 7.8891448 5.44100997 5.875 4.5625 C4.77929688 4.08941406 3.68359375 3.61632812 2.5546875 3.12890625 C1.71164063 2.75636719 0.86859375 2.38382813 0 2 C0 1.34 0 0.68 0 0 Z " fill="#2DBF28" transform="translate(222,172)"/>
<path d="M0 0 C0 0.99 0 1.98 0 3 C-2.09782787 5.09782787 -3.3799207 5.6509396 -6.125 6.625 C-6.84945312 6.88539063 -7.57390625 7.14578125 -8.3203125 7.4140625 C-9.15175781 7.70410156 -9.15175781 7.70410156 -10 8 C-10 7.34 -10 6.68 -10 6 C-6.88494633 3.15195093 -3.98671063 1.36687222 0 0 Z " fill="#15DC0F" transform="translate(245,296)"/>
<path d="M0 0 C0.66 0 1.32 0 2 0 C2.98248524 4.0527516 3.08159574 7.83861737 3 12 C2.34 12 1.68 12 1 12 C0.01751476 7.9472484 -0.08159574 4.16138263 0 0 Z " fill="#12D10C" transform="translate(136,256)"/>
<path d="M0 0 C0.66 0 1.32 0 2 0 C1.52389341 4.99911924 -0.03162219 7.97832683 -3 12 C-4.2077558 8.37673261 -3.54311128 7.35853631 -2 4 C-1.34 4 -0.68 4 0 4 C0 2.68 0 1.36 0 0 Z " fill="#12CD0C" transform="translate(145,205)"/>
<path d="M0 0 C0.66 0.33 1.32 0.66 2 1 C0.35 4.3 -1.3 7.6 -3 11 C-3.66 11 -4.32 11 -5 11 C-4.46884894 6.48521602 -2.63379708 3.65333143 0 0 Z " fill="#CECECE" transform="translate(58,123)"/>
<path d="M0 0 C0.66 0 1.32 0 2 0 C2 3.63 2 7.26 2 11 C1.34 11 0.68 11 0 11 C-1.125 3.375 -1.125 3.375 0 0 Z " fill="#777777" transform="translate(206,352)"/>
<path d="M0 0 C0.33 1.32 0.66 2.64 1 4 C0.34 4 -0.32 4 -1 4 C-1 3.34 -1 2.68 -1 2 C-3.31 2 -5.62 2 -8 2 C-8.33 2.66 -8.66 3.32 -9 4 C-9 2.68 -9 1.36 -9 0 C-5.67465243 -1.10844919 -3.37817425 -0.84454356 0 0 Z " fill="#8D8D8D" transform="translate(229,216)"/>
<path d="M0 0 C0.66 0.99 1.32 1.98 2 3 C1.01 3.495 1.01 3.495 0 4 C-0.65213292 6.02463255 -0.65213292 6.02463255 -1 8 C-2.65 8.33 -4.3 8.66 -6 9 C-4.47291037 5.56404834 -2.40072955 2.88087546 0 0 Z " fill="#C6E8C4" transform="translate(164,198)"/>
<path d="M0 0 C-0.1875 1.8125 -0.1875 1.8125 -1 4 C-3.5625 5.75 -3.5625 5.75 -6 7 C-6 5.68 -6 4.36 -6 3 C-2.78571429 0 -2.78571429 0 0 0 Z " fill="#4CD546" transform="translate(175,187)"/>
<path d="M0 0 C0.33 0 0.66 0 1 0 C1 1.65 1 3.3 1 5 C1.66 5 2.32 5 3 5 C2.67 5.99 2.34 6.98 2 8 C-0.64 6.02 -3.28 4.04 -6 2 C-5.34 1.67 -4.68 1.34 -4 1 C-3.01 1.33 -2.02 1.66 -1 2 C-0.67 1.34 -0.34 0.68 0 0 Z " fill="#C2E6C2" transform="translate(241,176)"/>
<path d="M0 0 C2.97 0.99 5.94 1.98 9 3 C9 3.66 9 4.32 9 5 C4.78087253 4.5205537 2.20336822 3.83374881 -1 1 C-0.67 0.67 -0.34 0.34 0 0 Z " fill="#3B3B3B" transform="translate(330,37)"/>
<path d="M0 0 C1.65 0 3.3 0 5 0 C5 2.31 5 4.62 5 7 C3.68 7 2.36 7 1 7 C-0.231394 4.53721199 -0.07159196 2.7204945 0 0 Z " fill="#696969" transform="translate(174,355)"/>
<path d="M0 0 C0.66 0 1.32 0 2 0 C0.55746343 3.36591866 -1.33264727 5.51047079 -4 8 C-4 7.01 -4 6.02 -4 5 C-4.66 4.67 -5.32 4.34 -6 4 C-5.34 3.34 -4.68 2.68 -4 2 C-2.68 2 -1.36 2 0 2 C0 1.34 0 0.68 0 0 Z " fill="#6B6B6B" transform="translate(281,328)"/>
<path d="M0 0 C2.33294775 -0.04241723 4.66702567 -0.04092937 7 0 C8 1 8 1 8.0625 3.5625 C8.041875 4.366875 8.02125 5.17125 8 6 C7.01 4.68 6.02 3.36 5 2 C3.02 2.99 3.02 2.99 1 4 C0.67 2.68 0.34 1.36 0 0 Z " fill="#30F222" transform="translate(137,254)"/>
<path d="M0 0 C1.27351308 2.54702616 0.80191925 3.4282945 0.0625 6.125 C-0.13214844 6.84945312 -0.32679688 7.57390625 -0.52734375 8.3203125 C-0.68332031 8.87460938 -0.83929688 9.42890625 -1 10 C0.65 10 2.3 10 4 10 C4 10.33 4 10.66 4 11 C2.02 11 0.04 11 -2 11 C-3.14947895 7.44706507 -3.0868937 6.20023331 -1.5625 2.6875 C-1.046875 1.800625 -0.53125 0.91375 0 0 Z " fill="#44F22E" transform="translate(139,243)"/>
<path d="M0 0 C-3.90028225 2.60018816 -7.47434569 2.15085514 -12 2 C-8.17961144 -1.82038856 -4.9914244 -0.84760037 0 0 Z " fill="#41C33E" transform="translate(194,182)"/>
<path d="M0 0 C2.49137421 1.91005356 3.15151008 3.39884235 3.875 6.4375 C3 8.75 3 8.75 1.875 10.4375 C1.66875 9.32375 1.4625 8.21 1.25 7.0625 C0.25871699 3.17150805 0.25871699 3.17150805 -3.25 2 C-4.19875 1.814375 -5.1475 1.62875 -6.125 1.4375 C-3.78854847 -0.06450455 -2.74651463 -0.72701858 0 0 Z " fill="#838383" transform="translate(205.125,237.5625)"/>
<path d="M0 0 C-0.66 2.97 -1.32 5.94 -2 9 C-4 7 -4 7 -4.125 3.875 C-4.08375 2.92625 -4.0425 1.9775 -4 1 C-2 0 -2 0 0 0 Z " fill="#656565" transform="translate(104,210)"/>
<path d="M0 0 C0.66 0.33 1.32 0.66 2 1 C0.9375 2.9375 0.9375 2.9375 -1 5 C-4.6875 5.75 -4.6875 5.75 -8 6 C-5.38485683 3.87961365 -2.80362384 1.86908256 0 0 Z " fill="#29AF26" transform="translate(226,305)"/>
<path d="M0 0 C0.99 0 1.98 0 3 0 C3.66 0.99 4.32 1.98 5 3 C5.66 3 6.32 3 7 3 C7 4.65 7 6.3 7 8 C3.75700849 5.61042731 1.49097658 3.7952131 0 0 Z " fill="#C6E8C6" transform="translate(158,287)"/>
<path d="M0 0 C0.66 0 1.32 0 2 0 C1.34 2.97 0.68 5.94 0 9 C-0.66 8.67 -1.32 8.34 -2 8 C-1.125 1.125 -1.125 1.125 0 0 Z " fill="#57D74F" transform="translate(148,220)"/>
<path d="M0 0 C0.99 0.33 1.98 0.66 3 1 C3 2.32 3 3.64 3 5 C1.02 5.99 1.02 5.99 -1 7 C-1.66 6.34 -2.32 5.68 -3 5 C-2.01 3.35 -1.02 1.7 0 0 Z " fill="#646464" transform="translate(364,434)"/>
<path d="M0 0 C2.62187494 1.04874998 3.79371361 1.64931313 5.25 4.125 C5.4975 4.74375 5.745 5.3625 6 6 C3.13275314 5.42655063 2.1385485 5.1385485 0 3 C0 2.01 0 1.02 0 0 Z " fill="#E0E0E0" transform="translate(98,418)"/>
<path d="M0 0 C0.66 0 1.32 0 2 0 C3.06546953 3.1964086 3.07427838 5.65747276 3 9 C2.01 9 1.02 9 0 9 C0 6.03 0 3.06 0 0 Z " fill="#6D6D6D" transform="translate(222,354)"/>
<path d="M0 0 C1.98 0.99 1.98 0.99 4 2 C4 2.99 4 3.98 4 5 C4.66 5 5.32 5 6 5 C5.67 5.99 5.34 6.98 5 8 C4.01 8 3.02 8 2 8 C1.34 5.36 0.68 2.72 0 0 Z " fill="#1CF110" transform="translate(156,295)"/>
<path d="M0 0 C2.78637633 4.1795645 1.79562512 6.14668677 1 11 C-1.78637633 6.8204355 -0.79562512 4.85331323 0 0 Z " fill="#6D6D6D" transform="translate(185,266)"/>
<path d="M0 0 C0.66 0 1.32 0 2 0 C3.03159626 3.09478879 2.97482862 4.52631393 2.5625 7.6875 C2.46066406 8.49574219 2.35882813 9.30398437 2.25390625 10.13671875 C2.17011719 10.75160156 2.08632813 11.36648438 2 12 C1.67 12 1.34 12 1 12 C0.01751476 7.9472484 -0.08159574 4.16138263 0 0 Z " fill="#1CC41A" transform="translate(259,246)"/>
<path d="M0 0 C0.66 1.32 1.32 2.64 2 4 C1.360625 4.268125 0.72125 4.53625 0.0625 4.8125 C-2.33131686 5.88667752 -2.33131686 5.88667752 -3 9 C-3.33 8.34 -3.66 7.68 -4 7 C-3.22265625 5.2734375 -3.22265625 5.2734375 -2.0625 3.375 C-1.381875 2.26125 -0.70125 1.1475 0 0 Z " fill="#C6E8C5" transform="translate(157,207)"/>
<path d="M0 0 C0.33 0.99 0.66 1.98 1 3 C0.01 3.33 -0.98 3.66 -2 4 C-2 5.32 -2 6.64 -2 8 C-3.32 8.33 -4.64 8.66 -6 9 C-4.47291037 5.56404834 -2.40072955 2.88087546 0 0 Z " fill="#2FBA2D" transform="translate(156,188)"/>
<path d="M0 0 C2.97 0.33 5.94 0.66 9 1 C9 1.66 9 2.32 9 3 C5.7 2.67 2.4 2.34 -1 2 C-0.67 1.34 -0.34 0.68 0 0 Z " fill="#0CDE07" transform="translate(211,178)"/>
<path d="M0 0 C3.3 1.65 6.6 3.3 10 5 C9.67 5.66 9.34 6.32 9 7 C5.88626628 5.50079488 2.87771795 3.91847864 0 2 C0 1.34 0 0.68 0 0 Z " fill="#C6E5C6" transform="translate(167,315)"/>
<path d="M0 0 C0.66 0 1.32 0 2 0 C0.125 5.75 0.125 5.75 -1 8 C-1.66 8 -2.32 8 -3 8 C-2.37240135 5.07120629 -1.41377341 2.63904371 0 0 Z " fill="#0AF103" transform="translate(251,290)"/>
<path d="M0 0 C0.99 0 1.98 0 3 0 C3 2.31 3 4.62 3 7 C2.01 6.67 1.02 6.34 0 6 C0 4.02 0 2.04 0 0 Z " fill="#76FC62" transform="translate(141,244)"/>
<path d="M0 0 C0 3.63 0 7.26 0 11 C-1.80330533 7.39338934 -2.46599103 4.91606575 -3 1 C-1 0 -1 0 0 0 Z " fill="#D2D2D2" transform="translate(231,120)"/>
<path d="M0 0 C1.98 0 3.96 0 6 0 C5.34 1.32 4.68 2.64 4 4 C2.35 4 0.7 4 -1 4 C-0.67 2.68 -0.34 1.36 0 0 Z " fill="#3CEC2E" transform="translate(197,313)"/>
<path d="M0 0 C1.32 0.33 2.64 0.66 4 1 C3.01 1 2.02 1 1 1 C0.731875 1.639375 0.46375 2.27875 0.1875 2.9375 C-1 5 -1 5 -4 6 C-4 4.68 -4 3.36 -4 2 C-2.68 2 -1.36 2 0 2 C0 1.34 0 0.68 0 0 Z " fill="#2FEB21" transform="translate(139,240)"/>
<path d="M0 0 C0.99 0.33 1.98 0.66 3 1 C2.67 3.31 2.34 5.62 2 8 C1.34 8 0.68 8 0 8 C0 5.36 0 2.72 0 0 Z " fill="#838383" transform="translate(196,355)"/>
<path d="M0 0 C0.99 0 1.98 0 3 0 C2.67 3.63 2.34 7.26 2 11 C1.67 11 1.34 11 1 11 C0.67 7.37 0.34 3.74 0 0 Z " fill="#585858" transform="translate(223,268)"/>
<path d="M0 0 C1.0326802 2.78823655 1.04509293 3.8677274 0.0625 6.75 C-0.288125 7.4925 -0.63875 8.235 -1 9 C-1.66 9 -2.32 9 -3 9 C-2.69181644 7.68647977 -2.37832335 6.37420428 -2.0625 5.0625 C-1.88847656 4.33160156 -1.71445313 3.60070312 -1.53515625 2.84765625 C-1 1 -1 1 0 0 Z " fill="#0BEF05" transform="translate(146,217)"/>
<path d="M0 0 C0.99 0.33 1.98 0.66 3 1 C2.01 1.495 2.01 1.495 1 2 C0.835 2.825 0.67 3.65 0.5 4.5 C0.335 5.325 0.17 6.15 0 7 C-0.99 7.495 -0.99 7.495 -2 8 C-2.125 5.125 -2.125 5.125 -2 2 C-1.34 1.34 -0.68 0.68 0 0 Z " fill="#6C6C6C" transform="translate(211,126)"/>
</svg>